<svg width="97" height="13" xmlns="http://www.w3.org/2000/svg"><path d="M3.36.28h2.68c1.68 0 2.52.733 2.52 2.2v8.3c0 1.48-.84 2.22-2.52 2.22H3.36c-1.693 0-2.54-.74-2.54-2.22v-8.3c0-1.467.847-2.2 2.54-2.2zM5.7 10.4V2.88c0-.333-.173-.5-.52-.5h-.96c-.36 0-.54.167-.54.5v7.52c0 .333.18.5.54.5h.96c.347 0 .52-.167.52-.5zM15.6.28h2.62V13h-2.56l-2.78-7.62V13h-2.6V.28h2.58l2.74 7.6V.28zm4.54 0h5.3c1.693 0 2.54.733 2.54 2.2v8.3c0 1.48-.847 2.22-2.54 2.22h-5.3V.28zm4.98 10.26v-7.8c0-.333-.18-.5-.54-.5H23v8.8h1.58c.36 0 .54-.167.54-.5zm7.42-2.3V13H29.7V.28h5.24c1.68 0 2.52.733 2.52 2.2v3.56c0 1.173-.533 1.88-1.6 2.12L38.1 13h-3.06l-2-4.76h-.5zm0-5.86v3.84h1.54c.187 0 .32-.037.4-.11.08-.073.12-.197.12-.37V2.88c0-.333-.173-.5-.52-.5h-1.54zM44.88 13l-.44-2.3h-2.9L41.1 13h-2.82L41.16.28h3.64L47.76 13h-2.88zm-2.94-4.38h2.08l-1.04-5.38-1.04 5.38zM57.7.28h2.82V13H57.7V7.76h-2.56V13h-2.82V.28h2.82v5.38h2.56V.28zM68.12 13l-.44-2.3h-2.9l-.44 2.3h-2.82L64.4.28h3.64L71 13h-2.88zm-2.94-4.38h2.08l-1.04-5.38-1.04 5.38zm6.14-.38h2.86v2.16c0 .333.18.5.54.5h.34c.36 0 .54-.167.54-.5V.28h2.86v10.5c0 1.48-.84 2.22-2.52 2.22h-2.1c-1.68 0-2.52-.74-2.52-2.22V8.24zm11.72 2.66h4.08V13h-6.94V.28h6.78v2.1h-3.92v3.1h3.34v2.1h-3.34v3.32zM96.8.28l-2.56 6.28L96.8 13h-3.08l-2.46-6.44L93.72.28h3.08zM88.36 13V.28h2.84V13h-2.84z" fill="#FFF" fill-rule="evenodd"/></svg>
