<svg xmlns="http://www.w3.org/2000/svg" width="137" height="13"><g fill="#fff" fill-rule="evenodd"><path d="M5.464 10.343V2.657c0-.34-.194-.51-.582-.51H3.807c-.403 0-.605.17-.605.51v7.686c0 .34.202.51.605.51h1.075c.388 0 .582-.17.582-.51M2.844 0h3.001c1.881 0 2.822.75 2.822 2.248v8.483c0 1.513-.94 2.269-2.822 2.269h-3C.947 13 0 12.244 0 10.731V2.248C0 .75.948 0 2.844 0"/><path d="M16.746 0L19.81 0 19.81 13 16.816 13 13.565 5.212 13.565 13 10.524 13 10.524 0 13.541 0 16.746 7.767z"/><path d="M27.95 10.486V2.514c0-.34-.204-.51-.614-.51H25.54v8.993h1.797c.41 0 .614-.17.614-.511zM22.286 0h6.028c1.926 0 2.89.75 2.89 2.248v8.483c0 1.513-.964 2.269-2.89 2.269h-6.028V0zM36.39 2.146v3.925h1.752c.212 0 .364-.038.455-.113.09-.074.136-.2.136-.378V2.657c0-.34-.197-.51-.591-.51H36.39zm0 5.99V13h-3.23V0h5.96c1.91 0 2.866.75 2.866 2.248v3.639c0 1.199-.607 1.921-1.82 2.166L42.714 13h-3.48l-2.275-4.865h-.569z"/><path d="M50.041 13L47.932 3.025 45.845 13 42.714 13 45.911 0 49.952 0 53.238 13z"/><path d="M60.568 0L63.762 0 63.762 13 60.568 13 60.568 7.645 57.67 7.645 57.67 13 54.476 13 54.476 0 57.67 0 57.67 5.498 60.568 5.498z"/><path d="M72.946 13L70.837 3.025 68.75 13 65.619 13 68.816 0 72.857 0 76.143 13z"/><path d="M76.762 8.135h3.224v2.208c0 .34.202.51.608.51h.383c.406 0 .609-.17.609-.51V0h3.224v10.731c0 1.513-.947 2.269-2.84 2.269h-2.368c-1.893 0-2.84-.756-2.84-2.269V8.135z"/><path d="M89.983 10.854L94.714 10.854 94.714 13 86.667 13 86.667 0 94.529 0 94.529 2.146 89.983 2.146 89.983 5.314 93.856 5.314 93.856 7.461 89.983 7.461z"/><path d="M105.857 0l-3.004 6.418L105.857 13h-3.614l-2.887-6.582L102.243 0h3.614zm-9.905 13h3.333V0h-3.333v13z"/><path transform="translate(107.095 9.905)" d="M0.445 2.671L2.485 2.671 2.485 0.4 0.445 0.4z"/><path d="M117.214 3.834h-1.561v-1.88c0-.266-.045-.436-.136-.51-.09-.073-.279-.11-.565-.11h-1.244c-.302 0-.494.037-.577.11-.083.074-.125.244-.125.51v8.858c0 .253.042.42.125.5.083.08.275.12.577.12h1.244c.286 0 .475-.04.565-.12.09-.08.136-.247.136-.5v-1.88h1.56v2.1c0 1.053-.595 1.58-1.786 1.58h-2.194c-1.192 0-1.787-.527-1.787-1.58V1.734c0-1.052.595-1.58 1.787-1.58h2.194c1.19 0 1.787.528 1.787 1.58v2.1zm6.378 6.958V1.954c0-.266-.045-.436-.135-.51-.09-.073-.28-.11-.566-.11h-1.402c-.287 0-.475.037-.566.11-.09.074-.136.244-.136.51v8.838c0 .266.046.436.136.51.09.073.279.11.566.11h1.402c.286 0 .475-.037.566-.11.09-.074.135-.244.135-.51M121.036.155h2.307c1.192 0 1.787.527 1.787 1.58v9.277c0 1.053-.595 1.58-1.787 1.58h-2.307c-1.191 0-1.787-.527-1.787-1.58V1.734c0-1.052.596-1.58 1.787-1.58"/><path transform="translate(126.905)" d="M1.776 12.591L0.434 12.591 0.434 0.155 2.14 0.155 4.574 8.153 7.031 0.155 8.737 0.155 8.737 12.591 7.395 12.591 7.395 3.174 5.416 9.892 3.755 9.892 1.776 3.174z"/></g></svg>
