<?xml version="1.0" standalone="no"?>
<!DOCTYPE svg PUBLIC "-//W3C//DTD SVG 20010904//EN"
 "http://www.w3.org/TR/2001/REC-SVG-20010904/DTD/svg10.dtd">
<svg version="1.0" xmlns="http://www.w3.org/2000/svg"
 width="260.000000pt" height="260.000000pt" viewBox="0 0 260.000000 260.000000"
 preserveAspectRatio="xMidYMid meet">
<metadata>
Created by potrace 1.11, written by Peter Selinger 2001-2013
</metadata>
<g transform="translate(0.000000,260.000000) scale(0.100000,-0.100000)"
fill="#000000" stroke="none">
<path d="M326 2271 c-1 -3 -2 -442 -2 -976 l1 -970 975 0 975 0 2 977 1 976
-974 0 c-536 0 -976 -3 -978 -7z m1859 -971 l0 -885 -882 -1 -883 0 -1 35 c-3
197 0 1721 4 1728 3 4 391 8 884 8 l878 0 0 -885z"/>
<path d="M755 1718 c-38 -14 -63 -35 -82 -72 -13 -24 -15 -88 -15 -382 0 -329
1 -355 19 -386 37 -64 68 -73 255 -75 153 -1 170 0 210 20 81 42 81 41 81 441
0 299 -2 355 -15 381 -18 35 -42 57 -79 72 -34 14 -334 15 -374 1z m252 -151
c4 -4 7 -138 8 -298 0 -222 -3 -293 -13 -301 -18 -15 -100 -17 -119 -3 -14 11
-16 46 -16 305 0 223 3 294 13 300 15 9 117 7 127 -3z"/>
<path d="M1350 1265 l0 -465 103 2 102 3 0 188 c0 103 2 188 5 188 26 6 173 2
177 -5 3 -4 6 -90 7 -190 l1 -181 103 -3 102 -3 0 466 0 465 -104 0 -103 0 0
-190 c0 -105 -3 -193 -6 -196 -10 -10 -177 -9 -180 1 -2 6 -3 94 -2 198 l0
187 -102 0 -103 0 0 -465z"/>
</g>
</svg>
