<svg width="51" height="33" viewBox="0 0 51 33" xmlns="http://www.w3.org/2000/svg"><g fill-rule="nonzero" fill="#FFF"><path d="M34.2862945,9.14304745 L40.2790974,9.14304745 C41.7697268,9.14304745 41.7515558,9.95178832 41.7382304,11.1230474 C41.7261164,12.2208394 41.5565202,13.8449453 41.0774109,16.0730474 C40.6104157,18.2632117 40.130095,19.8770803 39.6679454,21.0224453 C39.3220903,21.8811679 38.9895606,22.4725182 38.7042755,22.8567153 C38.2627197,23.4348175 38.013171,23.5558577 37.7284917,23.6642518 C37.4438124,23.772646 37.0016508,23.8051642 36.3262945,23.8003467 L11.0080048,23.8003467 C9.55432304,23.8003467 9.25147268,23.4619161 9.25147268,22.4267518 C9.25147268,21.7697628 9.35989311,20.8164964 9.62821853,19.5633394 C9.91532067,18.2192518 10.104905,17.9127372 10.4477316,17.1991423 C10.9746912,16.1206204 11.4368409,15.7243796 11.8650713,15.4871168 C12.2933017,15.249854 12.8590261,15.1498905 13.6791449,15.1498905 L21.5326603,15.1498905 L22.3503563,11.3133394 L13.6730879,11.3133394 C12.9274703,11.3133394 12.1218884,11.3693431 11.2835986,11.6054015 C10.617311,11.7915284 9.98741336,12.0881608 9.42046318,12.482792 C8.52281473,13.1084672 7.75902613,14.012354 7.15514252,15.157719 C6.55125891,16.3030839 6.22418052,17.0124635 5.84804038,18.765438 C5.54519002,20.1896168 5.38891924,21.3753285 5.38649644,22.4267518 C5.38649644,23.3011314 5.49491686,24.0960219 5.7838361,24.8355109 C5.99664013,25.3921559 6.3271213,25.8969147 6.75295724,26.3156934 C7.38954869,26.9419708 8.17695962,27.272573 8.88986936,27.4369708 C9.6027791,27.6013686 10.3090261,27.6344891 11.0031591,27.6375 C14.2684917,27.6375 33.0070546,27.6375 36.3214489,27.6375 C36.9616746,27.6344891 37.7466627,27.6375 38.6394656,27.3966241 C39.3735804,27.1981413 40.0569388,26.8469483 40.6443349,26.3662774 C41.5989192,25.587646 42.3584679,24.480219 43.0259501,22.9705292 C43.6934323,21.4608394 44.2852019,19.4970985 44.8485036,16.8703467 C45.3591093,14.472427 45.5910926,12.6261131 45.5935154,11.1236496 C45.5935154,10.0288686 45.4723753,9.10631387 45.1834561,8.28191606 C44.979122,7.67691709 44.6489152,7.12148679 44.2143349,6.65178832 C43.5728979,5.96288321 42.7418765,5.6039781 42.0519834,5.45764599 C41.3620903,5.31131387 40.7569952,5.30830292 40.2790974,5.30589416 L31.1614846,5.30589416 L27.6671971,21.6360766 L31.6127316,21.6360766 L34.2869002,9.14244526"/><path d="M49.7510451,5.06742701 C49.1979892,3.93550723 48.3997606,2.93934073 47.4136461,2.15041971 C46.0362827,1.05864964 44.489323,0.534142336 43.095,0.272189781 C41.700677,0.0102372263 40.4159857,0 39.4856295,0 L26.959133,0 L22.3303682,21.6360766 L26.2759026,21.6360766 L30.0845487,3.83655109 L39.4856295,3.83655109 C40.2730404,3.83655109 41.1676603,3.85040146 42.0501663,3.98529197 C42.6994087,4.07596125 43.3336682,4.2519332 43.9363183,4.50859489 C44.8061045,4.90182482 45.5190143,5.44560219 46.1041211,6.42114964 C46.689228,7.39669708 47.1338124,8.89494526 47.1338124,11.2157847 C47.1338124,12.5670985 46.9781473,14.19 46.6110926,16.1139964 C45.9490618,19.5910401 45.1295487,22.144927 44.2488599,23.9767883 C43.5874347,25.3521898 42.8975416,26.3211131 42.2173397,27.0136314 C41.1876485,28.0439781 40.1930879,28.5154927 39.0174228,28.8015328 C37.8417577,29.087573 36.4916508,29.1086496 35.0095012,29.1056387 L10.2896437,29.1056387 C8.66273159,29.1092518 7.00916865,28.6714599 5.87105701,27.7338504 C5.25374518,27.2298576 4.7682882,26.5848184 4.45614014,25.8538139 C4.09817102,25.0384489 3.85891924,23.982208 3.85891924,22.595365 C3.86864504,21.566571 3.97817854,20.5411093 4.18599762,19.5332299 C4.67055819,17.0642518 5.17389549,15.8761314 5.89165083,14.4639964 C6.98191211,12.3430839 8.16666271,11.280219 9.36352732,10.6503285 C10.5603919,10.020438 11.8662827,9.83737226 13.2085154,9.83737226 L22.6677435,9.83737226 L23.4884679,6.00021898 L13.2085154,6.00021898 C12.0752494,6.00021898 10.8208432,6.10560219 9.52585511,6.47594891 C7.58276722,7.02213504 5.56820665,8.22229927 3.95340855,10.334781 C2.33861045,12.4472628 1.21140143,14.6934307 0.39976247,18.7955474 C0.143760608,20.0466053 0.00988500555,21.3193198 0,22.5959672 C0,24.4212044 0.319204276,26.0242336 0.920665083,27.3912044 C1.7408466,29.2836035 3.20354181,30.8294681 5.05336105,31.7588869 C6.74932304,32.6206204 8.5827791,32.9403832 10.2896437,32.942792 L35.0095012,32.942792 C36.3487055,32.942792 37.8042043,32.9379745 39.3299644,32.6555474 C40.4723159,32.4435766 41.6576722,32.0641971 42.7969952,31.3999818 C44.5135511,30.4069708 46.0617221,28.7912956 47.3203682,26.4439599 C48.5790143,24.0966241 49.6068884,20.9953467 50.4039905,16.8287956 C50.8067815,14.7139051 50.9945487,12.8591606 50.9945487,11.2163869 C50.9945487,8.71970803 50.5602613,6.69394161 49.7510451,5.06742701"/><path d="M25.0869121,0 L8.10366983,0 L7.28355107,3.83655109 L20.4999406,3.83655109 C24.5581354,3.83655109 25.0869121,0 25.0869121,0"/></g></svg>
