<svg width="132" height="29" viewBox="0 0 132 29" xmlns="http://www.w3.org/2000/svg"><g fill="#FFF" fill-rule="evenodd"><path d="M6.04476923,28.9335806 C5.93030769,28.9335806 5.81723077,28.882129 5.74153846,28.7839032 L1.09661538,22.7476935 C0.935076923,22.5793065 0.198461538,21.7233387 0.201692308,20.1512581 C0.201692308,19.8561129 0.228461538,19.5497419 0.280615385,19.2415 C0.567230769,17.5342419 1.062,16.8321613 1.35784615,16.4125968 L1.44184615,16.2919194 C1.63661538,16.0019194 1.734,15.8555161 1.95830769,15.8555161 L2.56984615,15.9153871 C2.68523077,15.9205323 2.79323077,15.9775968 2.86292308,16.0711452 C2.93261538,16.1651613 2.95615385,16.2849032 2.92846154,16.3990323 L2.76046154,17.0856774 C2.76646154,17.1212258 2.79323077,17.2414355 2.92846154,17.4659516 C3.12323077,17.789629 5.68523077,20.965129 7.63476923,23.3590323 C7.62692308,21.9735806 7.602,19.2995 7.59092308,18.096 L7.57938462,12.006 L5.20061538,11.9971129 L5.082,12.167371 L4.20323077,15.1553065 C4.15476923,15.3227581 4.002,15.4340806 3.83492308,15.4340806 C3.81692308,15.4340806 3.79892308,15.4331452 3.78046154,15.429871 C3.59169231,15.4022742 3.45138462,15.2385645 3.45046154,15.0453871 L3.42738462,8.61674194 C3.42738462,8.51337097 3.46753846,8.41374194 3.54,8.34124194 C3.612,8.26733871 3.71030769,8.22570968 3.81230769,8.22570968 L5.15861538,8.22570968 C5.37138462,8.22570968 5.54307692,8.39970968 5.54307692,8.61580645 L5.54307692,8.83517742 L7.46953846,8.84172581 L7.47923077,6.23593548 L7.31815385,5.42674194 C7.27892308,5.23216129 7.41323077,5.03290323 7.60015385,4.97209677 C7.60707692,4.96975806 7.74738462,4.92158065 8.14015385,4.65262903 C7.74230769,4.73869355 7.39153846,4.81259677 7.26461538,4.83083871 C6.95169231,4.87433871 6.42969231,4.92532258 6.22338462,4.92532258 C6.06969231,4.92532258 3.51738462,4.91596774 3.12046154,4.91409677 L1.94215385,8.28698387 C1.88630769,8.4446129 1.73953846,8.5461129 1.57938462,8.5461129 C1.55769231,8.5461129 1.53553846,8.54424194 1.51338462,8.54003226 C1.32923077,8.50822581 1.19492308,8.34591935 1.19492308,8.15554839 L1.20507692,0.673548387 C1.20507692,0.570177419 1.24615385,0.470548387 1.31953846,0.398048387 C1.39153846,0.325548387 1.48892308,0.284854839 1.58861538,0.284854839 C1.59092308,0.284854839 1.59184615,0.284854839 1.59276923,0.284854839 L2.80569231,0.295612903 C3.01753846,0.297483871 3.18692308,0.471483871 3.18692308,0.685241935 L3.18692308,0.960741935 L13.3103077,0.953258065 L13.4293846,0.915370968 C13.4676923,0.902741935 13.5069231,0.897129032 13.5456923,0.897129032 C13.6269231,0.897129032 13.7063077,0.923322581 13.7727692,0.972435484 C13.8710769,1.04587097 13.9296923,1.16280645 13.9296923,1.28675806 L13.9296923,2.3288871 C13.9296923,2.49540323 13.8235385,2.64414516 13.668,2.69840323 C13.4944615,2.75827419 12.9609231,3.00383871 12.8026154,3.33266129 L12.7186154,3.50104839 C12.54,3.84998387 12.4869231,3.95475806 12.4772308,5.51046774 C12.4656923,7.22895161 12.4666154,9.52556452 12.4666154,9.97927419 L12.4666154,22.3225161 C12.4444615,22.8636935 12.4264615,24.3384839 12.5926154,24.8459839 C12.7089231,25.2243871 12.7098462,25.2262581 9.53815385,26.3698871 L6.276,28.855 C6.20630769,28.9087903 6.12507692,28.9335806 6.04476923,28.9335806"/><path d="M19.9398462,4.31679032 C19.8996923,4.31679032 19.8609231,4.31117742 19.8221538,4.29854839 L19.2978462,4.12875806 C19.1016923,4.06514516 18.9895385,3.85466129 19.0453846,3.65212903 L19.9047692,0.551467742 C19.9329231,0.446693548 20.0049231,0.358290323 20.1009231,0.309177419 C20.1558462,0.281580645 20.2144615,0.267080645 20.2744615,0.267080645 C20.3206154,0.267080645 20.3663077,0.2755 20.4106154,0.292806452 L22.2290769,0.991612903 C22.3458462,1.03651613 22.434,1.13567742 22.4653846,1.25822581 C22.4967692,1.38077419 22.4663077,1.51127419 22.3855385,1.60762903 L20.2324615,4.17974194 C20.1586154,4.26767742 20.0506154,4.31679032 19.9398462,4.31679032"/><path d="M23.2864615,4.31679032 C23.2467692,4.31679032 23.2056923,4.31117742 23.166,4.2976129 L22.6167692,4.11425806 C22.4215385,4.04877419 22.3116923,3.83922581 22.3675385,3.63856452 L23.2264615,0.539774194 C23.2550769,0.435 23.3261538,0.347532258 23.4221538,0.298887097 C23.4761538,0.269887097 23.5366154,0.255387097 23.5966154,0.255387097 C23.6418462,0.255387097 23.6866154,0.26333871 23.7290769,0.279241935 L25.5664615,0.965419355 C25.6841538,1.00985484 25.7732308,1.10854839 25.8055385,1.23156452 C25.8373846,1.35364516 25.8092308,1.48414516 25.7289231,1.58237097 L23.5813846,4.17833871 C23.5061538,4.26767742 23.3981538,4.31679032 23.2864615,4.31679032"/><path d="M18.8718462,24.7819032 C18.846,24.7819032 18.8192308,24.7795645 18.7933846,24.7734839 L14.5186154,23.8693387 C14.3109231,23.8249032 14.1775385,23.6200323 14.2204615,23.4095484 L14.4373846,22.3285968 C14.4373846,21.6798387 14.4355385,13.4948226 14.4226154,12.9877903 C14.412,12.602371 14.1983077,11.9550161 14.1170769,11.7379839 C14.0810769,11.6411613 14.0838462,11.5340484 14.1258462,11.4400323 C14.1678462,11.3455484 14.2449231,11.2721129 14.3404615,11.235629 L16.2143077,10.5157742 C15.5187692,10.0522419 14.994,9.54287097 14.79,9.28327419 C14.5970769,9.03303226 14.2536923,8.41093548 14.2144615,8.34030645 C14.1641538,8.24769355 14.1526154,8.13730645 14.1830769,8.03627419 C14.2144615,7.93477419 14.2850769,7.85058065 14.3783077,7.80333871 L17.3086154,6.30796774 L18.9821538,4.30182258 C19.0569231,4.21201613 19.1653846,4.16337097 19.2756923,4.16337097 C19.3204615,4.16337097 19.3656923,4.17132258 19.4090769,4.18769355 L25.5,6.46933871 C25.6047692,6.50816129 25.6878462,6.5918871 25.7270769,6.69712903 C25.7658462,6.80330645 25.7575385,6.92117742 25.704,7.02080645 C25.704,7.02080645 25.5332308,7.33840323 25.3767692,7.59191935 C25.3024615,7.71353226 25.2046154,8.01709677 25.1501538,8.21962903 L25.1796923,20.6634355 L25.1912308,20.6681129 L26.3644615,20.9810323 C26.4816923,21.012371 26.5776923,21.0989032 26.6238462,21.2139677 C26.6686154,21.3290323 26.6570769,21.4585968 26.5924615,21.5638387 L24.7472308,24.5667419 C24.6766154,24.6836774 24.5506154,24.7505645 24.42,24.7505645 C24.3876923,24.7505645 24.3544615,24.7463548 24.3216923,24.7379355 L20.9783077,23.8337903 C20.796,23.7846774 20.676,23.6088065 20.6949231,23.4179677 C20.7341538,23.0157097 20.8172308,22.1616129 20.8703077,21.5947097 L20.7701538,21.751871 L19.2073846,24.5826452 C19.1386154,24.7065968 19.0089231,24.7819032 18.8718462,24.7819032 Z M18.7010769,20.2780161 L19.6236923,20.5820484 L20.8726154,18.3892742 L20.8578462,10.7814516 L18.7163077,11.8432258 L18.7010769,20.2780161 Z M19.0698462,8.40298387 C19.2396923,8.59475806 19.4501538,8.71309677 19.7616923,8.85248387 C20.0833846,8.99608065 20.3053846,9.02227419 20.6266154,9.02227419 C20.7036923,9.02227419 20.7849231,9.02040323 20.8726154,9.01853226 C20.922,9.01759677 20.9741538,9.01291935 21.0295385,9.00590323 L19.0698462,8.40298387 L19.0698462,8.40298387 Z"/><path d="M27.5289231,28.885871 C27.4850769,28.885871 27.4403077,28.8779194 27.396,28.8615484 L26.5707692,28.5561129 C26.4678462,28.5186935 26.3847692,28.4373065 26.3446154,28.3334677 C26.3044615,28.2300968 26.3104615,28.1140968 26.3598462,28.0149355 C26.3903077,27.9527258 27.1310769,26.4798065 27.9438462,25.6481613 C28.7501538,24.8254032 29.3723077,24.3380161 29.9275385,24.0975968 L27.2178462,23.3571613 C27.1158462,23.3295645 27.0290769,23.259871 26.9792308,23.1649194 C26.9284615,23.0690323 26.9201538,22.9581774 26.9543077,22.8552742 C26.9570769,22.8468548 27.2663077,21.9146452 27.3083077,21.0928226 C27.3512308,20.2260968 27.3083077,14.5991613 27.3073846,14.5420968 L27.3369231,9.17756452 L26.9229231,7.89033871 C26.862,7.6995 26.9524615,7.49369355 27.1329231,7.41370968 L29.8093846,6.20974194 L31.4326154,4.24054839 C31.5069231,4.14980645 31.6158462,4.10069355 31.728,4.10069355 C31.7690769,4.10069355 31.8101538,4.10724194 31.8503077,4.12080645 L38.4198462,6.37391935 C38.5416923,6.41648387 38.6344615,6.51798387 38.6676923,6.64380645 C38.7004615,6.77056452 38.6686154,6.90574194 38.5827692,7.0035 C38.58,7.00724194 38.2347692,7.40669355 38.2015385,7.90296774 C38.166,8.40158065 38.1563077,12.673 38.1563077,14.8610968 L38.1867692,25.4470323 C38.1867692,25.6191613 38.0755385,25.7721129 37.9121538,25.8212258 L35.7729231,26.4671774 L33.8178462,28.5074677 C33.7444615,28.5851129 33.6433846,28.6258065 33.5418462,28.6258065 C33.4846154,28.6258065 33.4264615,28.6131774 33.3733846,28.5860484 C33.3512308,28.5752903 31.2166154,27.5214677 30.0724615,27.5069677 L29.7073846,27.5041613 C28.8276923,27.5041613 28.7510769,27.5659032 28.5461538,27.7300806 C28.3389231,27.8956613 28.0181538,28.403629 27.8649231,28.6847419 C27.7952308,28.8115 27.6646154,28.885871 27.5289231,28.885871 Z M32.1595385,23.8244355 L33.9549231,24.2627097 L33.9549231,20.6615645 L32.1595385,23.8244355 Z M31.5267692,20.3154355 L32.1849231,20.5118871 L33.9521538,17.2592097 L33.9521538,11.3694032 C33.9521538,10.9867903 33.7375385,10.4016452 33.6549231,10.208 C33.5935385,10.0676774 33.6203077,9.9035 33.7223077,9.79030645 L34.1538462,9.30993548 L31.4981538,8.39035484 L31.5267692,20.3154355 L31.5267692,20.3154355 Z"/><path d="M46.926,24.8197903 C46.8946154,24.8197903 46.8641538,24.8165161 46.8323077,24.8085645 L40.1233846,23.111129 C39.9258462,23.0620161 39.8007692,22.8641613 39.8390769,22.6611613 L40.1681538,20.9085323 C40.17,20.2855 40.1898462,11.9367742 40.1681538,10.3399032 C40.1469231,8.75753226 39.8326154,7.78603226 39.8293846,7.77714516 C39.7952308,7.67470968 39.8049231,7.56245161 39.8552308,7.46796774 C39.9055385,7.37348387 39.9923077,7.30379032 40.0947692,7.27572581 L42.3590769,6.66532258 L44.4350769,4.23493548 C44.5056923,4.15167742 44.6076923,4.1035 44.7166154,4.10069355 C44.7203077,4.10069355 44.7230769,4.10069355 44.7267692,4.10069355 C44.8306154,4.10069355 44.9312308,4.14419355 45.0032308,4.22043548 L49.4021538,8.87353226 C49.5378462,9.01572581 49.5452308,9.23743548 49.422,9.3903871 L48.9064615,10.0260484 L44.4609231,18.1338871 L44.4992308,19.9543387 L47.4235385,20.7116129 L47.7096923,19.9197258 C47.7664615,19.7620968 47.9132308,19.6634032 48.0696923,19.6634032 C48.108,19.6634032 48.1458462,19.6694839 48.1841538,19.6807097 L49.2830769,20.0240323 C49.3938462,20.0577097 49.4833846,20.1419032 49.5272308,20.2518226 C49.5701538,20.3608065 49.5613846,20.4847581 49.5041538,20.5871935 L47.2606154,24.6224032 C47.1909231,24.7463548 47.0621538,24.8197903 46.926,24.8197903 Z M44.418,9.72856452 L44.4323077,14.9130161 L46.1243077,11.7174032 L44.418,9.72856452 L44.418,9.72856452 Z"/><path d="M55.3643077,24.7739516 C55.3315385,24.7739516 55.2983077,24.7692742 55.2650769,24.7608548 L50.1253846,23.3627742 C50.0026154,23.3290968 49.9195385,23.2182419 49.8775385,23.0961613 C49.836,22.9745484 49.872,22.8215968 49.9481538,22.7182258 C49.9615385,22.6990484 50.2864615,22.2322419 50.2684615,19.8949355 C50.2476923,17.4420968 50.2453846,9.73979032 50.2453846,8.17940323 L49.0218462,7.74487097 C48.9027692,7.70230645 48.8109231,7.60408065 48.7776923,7.48012903 C48.7444615,7.35758065 48.7730769,7.22520968 48.8529231,7.12745161 C48.8584615,7.12090323 49.4289231,6.42630645 49.8369231,5.79064516 C50.2656923,5.12317742 50.85,4.24896774 50.85,4.24896774 C50.9233846,4.13998387 51.0433846,4.07824194 51.168,4.07824194 C51.2113846,4.07824194 51.2547692,4.08479032 51.2967692,4.10022581 L54.4163077,5.22280645 C54.6156923,5.29437097 54.7209231,5.51467742 54.6512308,5.71720968 L54.3138462,6.70835484 L54.3221538,7.69856452 L56.2190769,4.27609677 C56.2873846,4.15354839 56.4152308,4.07824194 56.5546154,4.07824194 L57.4296923,4.07824194 C57.6032308,4.07824194 57.7555385,4.1961129 57.8003077,4.36590323 L59.1470769,9.43154839 C59.1669231,9.5466129 59.4147692,11.2379677 59.0450769,12.1949677 C58.6264615,13.2759194 58.1709231,14.0476935 57.6516923,14.556129 C57.1186154,15.0795323 56.8287692,15.3751452 56.8273846,15.3760806 C56.7544615,15.4504516 56.6566154,15.4911452 56.5546154,15.4911452 C56.4516923,15.4911452 56.3533846,15.4495161 56.2818462,15.3760806 L55.5184615,14.5963548 C55.3726154,14.4476129 55.3689231,14.2090645 55.5106154,14.0556452 C55.8318462,13.7067097 56.1835385,13.1889194 56.1932308,12.9746935 C56.2084615,12.6220161 56.0667692,12.1276129 55.8710769,11.4428387 L55.7358462,10.9676129 C55.6015385,10.4863065 55.4192308,9.90209677 55.2733846,9.44277419 C55.0352308,9.86608065 54.5215385,10.7683548 54.3572308,11.0564839 L54.3572308,20.2597742 L55.9615385,20.7148871 L56.1590769,19.8907258 C56.1844615,19.7859516 56.2513846,19.6956774 56.3450769,19.6428226 C56.4032308,19.6100806 56.4678462,19.5937097 56.5324615,19.5937097 C56.5726154,19.5937097 56.6127692,19.5993226 56.652,19.6119516 L57.9078462,20.0249677 C58.0195385,20.0633226 58.1090769,20.1498548 58.1501538,20.2616452 C58.1903077,20.374371 58.1778462,20.4983226 58.116,20.6012258 L55.692,24.5882581 C55.6213846,24.7051935 55.4953846,24.7739516 55.3643077,24.7739516"/><path d="M71.5010769,24.7290484 C71.4673846,24.7290484 71.4346154,24.7239032 71.4013846,24.7154839 L67.8346154,23.7524032 C67.7169231,23.7205968 67.6236923,23.6284516 67.5784615,23.5138548 C67.5346154,23.3983226 67.5498462,23.2626774 67.6149231,23.158371 C67.6186154,23.1527581 67.9744615,22.5559194 67.9744615,20.5558548 C67.9744615,18.3331452 67.9532308,9.89882258 67.9532308,9.89882258 L67.9532308,8.74022581 L66.9286154,8.323 L65.0187692,11.5845645 L65.0847692,20.822 L65.874,21.0787903 C65.9829231,21.1148065 66.0696923,21.1966613 66.1126154,21.3033065 C66.1555385,21.4094839 66.15,21.530629 66.0964615,21.632129 L64.5932308,24.521371 C64.5267692,24.6509355 64.3938462,24.7281129 64.2535385,24.7290484 C64.2212308,24.7290484 64.1875385,24.7239032 64.1552308,24.7154839 L60.564,23.7524032 C60.4527692,23.7224677 60.36,23.6429516 60.312,23.535371 C60.2644615,23.4291935 60.2672308,23.3052419 60.3189231,23.2009355 C60.3235385,23.1925161 60.7292308,22.3529194 60.7495385,20.9408065 C60.7703077,19.5488065 60.7347692,9.92548387 60.7283077,8.28137097 L59.4332308,7.61016129 C59.3349231,7.55917742 59.2633846,7.46703226 59.2366154,7.35851613 C59.2089231,7.25046774 59.2292308,7.13540323 59.292,7.04279032 L61.1986154,4.22417742 C61.2710769,4.11566129 61.3915385,4.05485484 61.5147692,4.05485484 C61.5613846,4.05485484 61.608,4.06374194 61.6527692,4.08104839 L65.1304615,5.43235484 C65.3289231,5.50859677 65.4286154,5.73404839 65.352,5.93517742 C65.3492308,5.94453226 64.9970769,6.88796774 64.9970769,7.58396774 C64.9970769,7.80380645 64.9989231,8.07369355 65.0007692,8.34732258 L67.3546154,4.24803226 C67.4238462,4.12641935 67.5526154,4.05485484 67.686,4.05485484 C67.7293846,4.05485484 67.7732308,4.06280645 67.8161538,4.07824194 L72.3724615,5.72843548 C72.4698462,5.76304839 72.5487692,5.83741935 72.5916923,5.93330645 C72.6346154,6.02779032 72.6383077,6.13724194 72.6013846,6.23593548 C72.5972308,6.24575806 72.222,7.23783871 72.222,8.22524194 C72.222,8.381 72.2229231,8.53301613 72.2252308,8.67801613 L74.5264615,4.2396129 C74.5947692,4.10817742 74.7281538,4.031 74.868,4.031 C74.9109231,4.031 74.9543077,4.03848387 74.9976923,4.05391935 L79.5087692,5.70504839 C79.6107692,5.74246774 79.6929231,5.82291935 79.734,5.92535484 C79.7750769,6.02779032 79.7713846,6.14285484 79.7233846,6.24248387 C79.5563077,6.59001613 79.1206154,7.63167742 79.1127692,8.27575806 C79.0924615,9.8366129 79.1446154,18.909871 79.1547692,20.6554839 L80.3386154,21.008629 C80.4489231,21.0399677 80.5384615,21.1213548 80.5836923,21.228 C80.6289231,21.3351129 80.6243077,21.4571935 80.5716923,21.559629 L79.0693846,24.5171613 C79.0029231,24.6495323 78.8695385,24.7290484 78.7278462,24.7290484 C78.6946154,24.7290484 78.6604615,24.7239032 78.6258462,24.7145484 L74.6972308,23.6130161 C74.5836923,23.5821452 74.4913846,23.4979516 74.4461538,23.3885 C74.4,23.2790484 74.4069231,23.1527581 74.4632308,23.0479839 C74.4669231,23.0414355 74.8656923,22.2743387 74.886,20.3926129 C74.9067692,18.5632742 74.8896923,10.1705806 74.8869231,8.56108065 L74.2684615,8.31925806 L72.2007692,11.8820484 L72.2441538,20.7279839 L73.2092308,21.0315484 C73.3186154,21.066629 73.4076923,21.1498871 73.4515385,21.2579355 C73.4944615,21.3673871 73.4870769,21.489 73.4316923,21.5914355 L71.8375385,24.5269839 C71.7692308,24.6537419 71.6381538,24.7290484 71.5010769,24.7290484"/><path d="M88.1312308,24.7313871 C88.1012308,24.7313871 88.0689231,24.7271774 88.0389231,24.7196935 L81.3290769,23.0245968 C81.1306154,22.9740806 81.0055385,22.7762258 81.0438462,22.5736935 L81.3743077,20.820129 C81.3752308,20.1947581 81.3950769,11.8469677 81.3743077,10.2510323 C81.3521538,8.67006452 81.0369231,7.6995 81.0341538,7.68967742 C81.0009231,7.58817742 81.0106154,7.47545161 81.06,7.38143548 C81.1107692,7.28648387 81.1970769,7.21632258 81.3,7.18966129 L83.5633846,6.57832258 L85.6416923,4.14746774 C85.7123077,4.06374194 85.8152308,4.01509677 85.9232308,4.01275806 C85.9250769,4.01275806 85.9278462,4.01275806 85.9296923,4.01275806 C86.0358462,4.01275806 86.1373846,4.05485484 86.2098462,4.1325 L90.6087692,8.78559677 C90.7435385,8.92825806 90.7523077,9.14996774 90.6276923,9.3033871 L90.1093846,9.9413871 L85.6675385,18.0436129 L85.7058462,19.866871 L88.6301538,20.6222742 L88.9149231,19.8308548 C88.9712308,19.6741613 89.118,19.575 89.2763077,19.575 C89.3132308,19.575 89.3515385,19.5806129 89.3889231,19.5927742 L90.4906154,19.935629 C90.6013846,19.9707097 90.6913846,20.0539677 90.7343077,20.1634194 C90.7776923,20.2733387 90.7698462,20.3972903 90.7121538,20.4992581 L88.4667692,24.532129 C88.3966154,24.6574839 88.2673846,24.7313871 88.1312308,24.7313871 Z M85.6246154,9.64203226 L85.6398462,14.8222742 L87.3304615,11.629 L85.6246154,9.64203226 L85.6246154,9.64203226 Z"/><path d="M95.7853846,24.6892903 C95.7530769,24.6892903 95.7207692,24.6850806 95.6884615,24.6766613 L91.7561538,23.6471613 C91.6333846,23.6144194 91.5406154,23.5152581 91.4972308,23.3955161 C91.4529231,23.2748387 91.4769231,23.1326452 91.5507692,23.027871 C91.5558462,23.0213226 92.0303077,22.3080161 92.0118462,19.2153065 C91.9947692,16.1773226 91.9915385,9.78375806 91.9901538,8.40158065 L90.6641538,7.8791129 C90.558,7.83748387 90.4753846,7.75001613 90.4389231,7.64009677 C90.4024615,7.53064516 90.4158462,7.41090323 90.4753846,7.31174194 L92.3612308,4.19377419 C92.4327692,4.07543548 92.5587692,4.00854839 92.6889231,4.00854839 C92.736,4.00854839 92.784,4.01696774 92.8301538,4.03567742 L96.5552308,5.52496774 C96.6521538,5.56379032 96.7296923,5.64096774 96.7693846,5.73779032 C96.8095385,5.83508065 96.8086154,5.94453226 96.7670769,6.04182258 L96.2141538,7.34401613 C96.198,12.1229355 96.1869231,19.0997742 96.216,20.5212419 C96.4624615,20.5960806 96.8903077,20.7340645 97.656,20.9857097 C97.7672308,21.0212581 97.8567692,21.1082581 97.8973846,21.2195806 C97.9384615,21.3309032 97.9273846,21.4548548 97.866,21.5568226 L96.1135385,24.5007903 C96.0433846,24.6195968 95.9169231,24.6892903 95.7853846,24.6892903"/><path d="M94.5069231,4.2138871 C94.4676923,4.2138871 94.428,4.20827419 94.3896923,4.19564516 L93.8958462,4.03614516 C93.6996923,3.973 93.5875385,3.76204839 93.6433846,3.5613871 L94.5170769,0.375129032 C94.5461538,0.267548387 94.6190769,0.179145161 94.7178462,0.129564516 C94.7713846,0.103370968 94.8295385,0.0893387097 94.8881538,0.0893387097 C94.9370769,0.0893387097 94.986,0.0982258065 95.0316923,0.117870968 L96.8723077,0.874677419 C96.9872308,0.921919355 97.0726154,1.02295161 97.1012308,1.1455 C97.1298462,1.26758065 97.0993846,1.39620968 97.0176923,1.49116129 L94.7972308,4.0801129 C94.7229231,4.16664516 94.6167692,4.2138871 94.5069231,4.2138871"/><path d="M100.184308,28.8072903 C100.182462,28.8072903 100.180615,28.8072903 100.178769,28.8072903 L98.832,28.7848387 C98.6224615,28.780629 98.454,28.6085 98.454,28.3961452 L98.4092308,4.97817742 L98.0178462,3.51508065 C97.9629231,3.31067742 98.0792308,3.10019355 98.2781538,3.0393871 L100.827692,2.26714516 L102.755077,0.1885 C102.829846,0.107580645 102.932769,0.065483871 103.035231,0.065483871 C103.106769,0.065483871 103.177846,0.0851290323 103.241538,0.125822581 L105.239077,1.40977419 C105.329077,1.47198387 105.582,1.61043548 105.820154,1.61043548 C105.955846,1.61043548 106.064308,1.56787097 106.161692,1.47619355 C106.635231,1.03277419 106.720154,0.935483871 106.727538,0.92566129 C106.806462,0.834451613 106.922769,0.782532258 107.039077,0.782532258 C107.106923,0.782532258 107.176615,0.79983871 107.236154,0.839129032 L107.910923,1.27459677 C108.001385,1.33212903 108.062769,1.42567742 108.082154,1.53279032 C108.101538,1.63896774 108.076154,1.7488871 108.012462,1.83541935 L106.126615,4.40145161 C106.092,4.44822581 106.047231,4.48704839 105.996,4.51464516 C105.953538,4.53709677 104.946462,5.06424194 104.150308,5.06424194 C103.985538,5.06424194 103.834615,5.04132258 103.703077,4.99782258 C103.372154,4.88977419 103.033385,4.76208065 102.765231,4.65590323 L102.725077,11.5050484 L102.747231,26.3778387 C102.747231,26.4816774 102.684462,26.5799032 102.612462,26.652871 C102.540462,26.7263065 102.419077,26.7674677 102.317077,26.7674677 C102.090462,26.7674677 101.763692,26.8109677 101.526462,26.9316452 C101.093538,27.1510161 100.824462,27.330629 100.723385,27.595371 C100.592769,27.9410323 100.569692,28.4288871 100.569692,28.4340323 C100.560462,28.6431129 100.390154,28.8072903 100.184308,28.8072903"/><path d="M109.276154,24.6813387 C109.242,24.6813387 109.207846,24.677129 109.174154,24.6673065 L105.224769,23.5690484 C105.112154,23.5377097 105.019846,23.4544516 104.973692,23.3464032 C104.927538,23.2374194 104.933077,23.1125323 104.989385,23.0072903 C104.993538,22.9984032 105.502154,22.0170806 105.502154,20.1208548 C105.502154,18.3111613 105.486,9.52135484 105.481846,7.56104839 L104.585077,7.56104839 C104.430923,7.56104839 104.292462,7.46843548 104.231538,7.32483871 C104.171077,7.18170968 104.201077,7.01566129 104.306769,6.90246774 L106.643077,4.42577419 L109.026923,0.945306452 C109.099846,0.838193548 109.219385,0.777854839 109.342615,0.777854839 C109.380923,0.777854839 109.420615,0.783467742 109.458923,0.796564516 C109.62,0.848016129 109.728462,1.00003226 109.726615,1.17075806 L109.707231,3.98329032 L112.750615,3.96364516 C112.751538,3.96364516 112.752923,3.96364516 112.753846,3.96364516 C112.887231,3.96364516 113.011385,4.03380645 113.082,4.14887097 C113.152154,4.26487097 113.156769,4.41033871 113.095385,4.53101613 L111.681692,7.30332258 C111.616154,7.43241935 111.486,7.51287097 111.343385,7.51427419 L109.748769,7.53251613 L109.705385,20.5146935 L111.106615,20.9146129 C111.221538,20.9468871 111.314769,21.0320161 111.358615,21.142871 C111.404308,21.255129 111.394615,21.3809516 111.335077,21.4857258 L109.608,24.4881613 C109.537846,24.6097742 109.410923,24.6813387 109.276154,24.6813387"/><path d="M119.620615,24.6331613 C119.589231,24.6331613 119.558769,24.6294194 119.527846,24.6219355 L112.818,22.9254355 C112.619077,22.8744516 112.494,22.6765968 112.532769,22.4735968 L112.863692,20.7214355 C112.864615,20.0927903 112.884,11.7496774 112.863692,10.1528065 C112.841538,8.57090323 112.527231,7.59893548 112.523538,7.5891129 C112.489846,7.48714516 112.499077,7.3748871 112.549385,7.27993548 C112.600615,7.18545161 112.686,7.11575806 112.789846,7.08862903 L115.055077,6.47962903 L117.131077,4.04783871 C117.201692,3.96458065 117.303692,3.91593548 117.412154,3.91359677 C117.415385,3.91359677 117.418615,3.91359677 117.422308,3.91359677 C117.527077,3.91359677 117.625846,3.95662903 117.699692,4.03287097 L122.098154,8.68503226 C122.232,8.82816129 122.240308,9.04987097 122.117077,9.20235484 L121.599231,9.84082258 L117.156462,17.9463226 L117.193846,19.7672419 L120.119077,20.5240484 L120.403846,19.7316935 C120.459692,19.5745323 120.606923,19.4749032 120.764308,19.4749032 C120.802154,19.4749032 120.840462,19.4805161 120.878308,19.4922097 L121.978154,19.8374032 C122.088923,19.8724839 122.178923,19.9566774 122.221846,20.066129 C122.264769,20.1760484 122.256462,20.2985968 122.199231,20.4015 L119.954769,24.4348387 C119.885538,24.5592581 119.756308,24.6331613 119.620615,24.6331613 Z M117.112615,9.54240323 L117.126923,14.7268548 L118.820308,11.5303065 L117.112615,9.54240323 L117.112615,9.54240323 Z"/><path d="M127.916769,24.5896613 C127.883077,24.5896613 127.850308,24.5859194 127.817077,24.5770323 L122.677846,23.1794194 C122.553692,23.1457419 122.471077,23.0353548 122.429077,22.9123387 C122.387538,22.7902581 122.424462,22.6368387 122.500615,22.5344032 C122.514,22.5156935 122.839846,22.0493548 122.819538,19.7134516 C122.799231,17.2587419 122.796923,9.55643548 122.796923,7.9983871 L121.572,7.56198387 C121.452923,7.5198871 121.362462,7.42072581 121.329692,7.29817742 C121.296,7.17469355 121.323692,7.04232258 121.404923,6.94456452 C121.410923,6.93754839 121.980462,6.24341935 122.388462,5.60729032 C122.815385,4.93982258 123.401077,4.0656129 123.401077,4.0656129 C123.474462,3.95616129 123.594462,3.89395161 123.719538,3.89395161 C123.762923,3.89395161 123.805385,3.90190323 123.847846,3.91640323 L126.967385,5.03804839 C127.166308,5.1096129 127.271077,5.3303871 127.201846,5.53291935 L126.864462,6.52593548 L126.873692,7.51474194 L128.770154,4.09274194 C128.838462,3.97066129 128.966308,3.89395161 129.105231,3.89395161 L129.980769,3.89395161 C130.155231,3.89395161 130.307077,4.01275806 130.352308,4.18301613 L131.7,9.24679032 C131.712462,9.3146129 131.796923,9.90069355 131.799231,10.572371 C131.800154,11.1748226 131.731385,11.658 131.596154,12.0102097 C131.184923,13.0757258 130.716923,13.8704194 130.205077,14.3732419 C129.669231,14.8947742 129.381231,15.1908548 129.378462,15.1922581 C129.306923,15.2661613 129.208154,15.3077903 129.105231,15.3077903 C129.104769,15.3077903 129.103846,15.3077903 129.102,15.3077903 C129.001385,15.3077903 128.904462,15.2652258 128.832923,15.1922581 L128.069538,14.4134677 C127.923692,14.2647258 127.920923,14.0261774 128.062154,13.8722903 C128.384308,13.5233548 128.735538,13.0060323 128.744769,12.7913387 C128.76,12.4363226 128.616462,11.9358387 128.417077,11.2435806 L128.286462,10.7837903 C128.152154,10.3034194 127.970308,9.71920968 127.824,9.26035484 C127.585385,9.68412903 127.074462,10.5821935 126.910154,10.8712581 L126.910154,20.0778226 L128.511692,20.532 L128.710154,19.7083065 C128.735538,19.6025968 128.802923,19.5132581 128.895692,19.4604032 C128.953385,19.428129 129.018462,19.4112903 129.083538,19.4112903 C129.123231,19.4112903 129.163385,19.417371 129.202615,19.43 L130.458462,19.8425484 C130.570615,19.8790323 130.660154,19.9665 130.700769,20.0792258 C130.740923,20.1905484 130.728462,20.316371 130.666615,20.4169355 L128.243538,24.4044355 C128.172462,24.5223065 128.047846,24.5896613 127.916769,24.5896613"/><path d="M2.80246154,1.35037097 L2.80246154,0.685241935 L1.59,0.674016129 L1.57984615,8.15648387 L2.82507692,4.59229032 L3.07107692,4.52446774 C3.07107692,4.52446774 6.05630769,4.53522581 6.22384615,4.53522581 C6.39276923,4.53522581 6.88661538,4.49032258 7.21107692,4.44495161 C7.53738462,4.39817742 9.60184615,3.92762903 9.60184615,3.92762903 L9.66876923,3.98562903 C9.66876923,3.98562903 9.60184615,4.05485484 8.76046154,4.68443548 C7.91861538,5.31448387 7.69476923,5.34956452 7.69476923,5.34956452 L7.86323077,6.1971129 L7.85169231,9.23369355 L5.15861538,9.22293548 L5.15861538,8.61533871 L3.81230769,8.61533871 L3.83492308,15.0444516 L4.73215385,11.9957097 L5.00123077,11.6065484 L7.96338462,11.6182419 L7.97492308,18.0927258 C7.97492308,18.0927258 8.03169231,23.8679355 8.02015385,24.2005 C8.00861538,24.5330645 7.84061538,24.2238871 7.84061538,24.2238871 C7.84061538,24.2238871 2.90261538,18.1731774 2.60030769,17.6689516 C2.29707692,17.1651935 2.38753846,16.9925968 2.38753846,16.9925968 L2.55553846,16.3054839 L1.94953846,16.2820968 C1.94953846,16.2820968 2.02753846,16.1109032 1.75938462,16.5112903 C1.48984615,16.9116774 0.961846154,17.5075806 0.659076923,19.3069839 C0.607846154,19.6110161 0.586153846,19.892129 0.585692308,20.1517258 C0.583384615,21.7303548 1.38830769,22.4937097 1.38830769,22.4937097 L6.04476923,28.5439516 L9.35538462,26.0223548 C9.35538462,26.0223548 12.2326154,24.9839677 12.2284615,24.969 C12.0023077,24.2818871 12.0816923,22.3220484 12.0816923,22.3220484 C12.0816923,22.3220484 12.0816923,10.2313871 12.0816923,10.0475645 C12.0816923,9.86420968 12.0803077,7.35290323 12.0923077,5.50719355 C12.1043077,3.66101613 12.1892308,3.71387097 12.4573846,3.16193548 C12.7236923,2.60859677 13.5452308,2.32935484 13.5452308,2.32935484 L13.5452308,1.28675806 L13.3684615,1.3428871 L2.80246154,1.35037097"/><polyline points="22.092 1.355 20.274 .657 19.415 3.757 19.94 3.928 22.092 1.355"/><polyline points="25.434 1.332 23.597 .645 22.737 3.745 23.286 3.928 25.434 1.332"/><path d="M24.7961538,20.8973065 L24.7666154,8.16770968 C24.7666154,8.16770968 24.9018462,7.63027419 25.0513846,7.38517742 C25.2018462,7.14101613 25.3661538,6.83464516 25.3661538,6.83464516 L19.2761538,4.55253226 L17.5513846,6.61995161 L14.5513846,8.15133871 C14.5513846,8.15133871 14.9118462,8.8103871 15.0918462,9.04098387 C15.2713846,9.27064516 15.8833846,9.87870968 16.7413846,10.3885484 C17.1009231,10.6032419 17.0709231,10.6032419 17.0709231,10.6032419 L14.4770769,11.5995323 C14.4770769,11.5995323 14.7918462,12.4405323 14.8070769,12.975629 C14.8218462,13.514 14.8218462,22.3692903 14.8218462,22.3692903 L14.5966154,23.4876613 L18.8713846,24.3922742 L20.4461538,21.5418548 L21.2123077,20.3322742 C21.2123077,20.3322742 21.3166154,20.8519355 21.3018462,21.0815968 C21.2870769,21.3112581 21.0770769,23.4563226 21.0770769,23.4563226 L24.4213846,24.3614032 L26.2666154,21.3575645 L25.0513846,21.0348226 L24.7961538,20.8973065 Z M19.8009231,21.0511935 L18.3161538,20.5605323 L18.3318462,11.5995323 L21.2413846,10.1584194 L21.2566154,18.4940484 L19.8009231,21.0511935 Z M20.8823077,9.40816129 C20.3792308,9.42032258 20.0667692,9.41470968 19.6070769,9.20890323 C19.0929231,8.97877419 18.7753846,8.76408065 18.5113846,8.25891935 C18.4176923,8.07883871 18.3318462,7.76872581 18.3318462,7.76872581 L22.4109231,9.0246129 C22.4109231,9.0246129 21.4956923,9.39272581 20.8823077,9.40816129 L20.8823077,9.40816129 Z"/><path d="M30.0470769,6.52874194 L27.288,7.76872581 L27.7218462,9.11675806 L27.6918462,14.5397581 C27.6918462,14.5397581 27.7370769,20.2242258 27.6918462,21.1129355 C27.6470769,22.0016452 27.318,22.9810968 27.318,22.9810968 L31.0823077,24.0087258 L31.1432308,24.1771129 C31.1432308,24.1771129 30.828,24.1930161 30.2418462,24.3922742 C29.6575385,24.590129 28.9970769,25.126629 28.2170769,25.9227258 C27.4370769,26.7192903 26.7023077,28.1908065 26.7023077,28.1908065 L27.528,28.4962419 C27.528,28.4962419 27.9618462,27.7006129 28.3075385,27.4246452 C28.6518462,27.1477419 28.8323077,27.1019032 30.0775385,27.116871 C31.3223077,27.1327742 33.5418462,28.2361774 33.5418462,28.2361774 L35.5670769,26.1229194 L37.8023077,25.4484355 L37.7723077,14.8615645 C37.7723077,14.8615645 37.7723077,8.51945161 37.8175385,7.87583871 C37.8618462,7.23222581 38.2970769,6.74343548 38.2970769,6.74343548 L31.7275385,4.49079032 L30.0470769,6.52874194 Z M34.3398462,24.7580484 L31.5701538,24.0816935 L34.3398462,19.2031452 L34.3398462,24.7580484 Z M34.0070769,10.0522419 C34.0070769,10.0522419 34.3370769,10.8179355 34.3370769,11.369871 L34.3370769,17.3588387 L32.3732308,20.9740161 L31.1432308,20.6068387 L31.1123077,7.84543548 L34.8318462,9.13219355 L34.0070769,10.0522419 L34.0070769,10.0522419 Z"/><path d="M47.6658462,21.1760806 L44.1207692,20.2588387 L44.0755385,18.0351935 L48.5861538,9.80667742 L49.1252308,9.14341935 L44.7263077,4.49032258 L42.5723077,7.01098387 L40.1935385,7.65272581 C40.1935385,7.65272581 40.53,8.66117742 40.5521538,10.3342903 C40.5756923,12.0069355 40.5521538,20.9459516 40.5521538,20.9459516 L40.2161538,22.734129 L46.9255385,24.4301613 L49.1695385,20.3958871 L48.0706154,20.0525645 L47.6658462,21.1760806 Z M44.0312308,8.68362903 L46.5886154,11.6640806 L44.0529231,16.4542258 L44.0312308,8.68362903 L44.0312308,8.68362903 Z"/><path d="M57.4292308,4.46787097 L56.5546154,4.46787097 L53.9506154,9.16493548 L53.9289231,6.64380645 L54.288,5.58951613 L51.1684615,4.46787097 C51.1684615,4.46787097 50.5855385,5.33833871 50.1586154,6.003 C49.7326154,6.66672581 49.1487692,7.37675806 49.1487692,7.37675806 L50.6298462,7.90343548 C50.6298462,7.90343548 50.6298462,17.1413387 50.6524615,19.8916613 C50.6746154,22.6415161 50.226,22.9867097 50.226,22.9867097 L55.3652308,24.3843226 L57.7892308,20.3958871 L56.532,19.9833387 L56.2403077,21.1980645 L53.9732308,20.5558548 L53.9732308,10.9521774 C53.9732308,10.9521774 54.9387692,9.25614516 55.0504615,9.05127419 C55.1635385,8.84453226 55.3878462,8.54658065 55.3878462,8.54658065 C55.3878462,8.54658065 55.8364615,9.8978871 56.106,10.8609677 C56.3746154,11.8240484 56.5993846,12.4877742 56.5772308,12.992 C56.5546154,13.4971613 55.7912308,14.3222581 55.7912308,14.3222581 L56.5546154,15.1019839 C56.5546154,15.1019839 56.8463077,14.8040323 57.3844615,14.2759516 C57.9235385,13.7488065 58.3490769,12.9246452 58.6864615,12.0532419 C59.0233846,11.1818387 58.776,9.53258065 58.776,9.53258065 L57.4292308,4.46787097"/><path d="M78.7278462,8.27108065 C78.7389231,7.39546774 79.3776923,6.07082258 79.3776923,6.07082258 L74.8670769,4.42062903 L71.8832308,10.1738548 C71.8832308,10.1738548 71.838,9.3033871 71.838,8.22570968 C71.838,7.14756452 72.2418462,6.09420968 72.2418462,6.09420968 L67.686,4.44495161 L64.6338462,9.76177419 C64.6338462,9.76177419 64.6121538,8.36322581 64.6121538,7.58396774 C64.6121538,6.80424194 64.9933846,5.79625806 64.9933846,5.79625806 L61.5156923,4.44495161 L59.6086154,7.26309677 L61.1118462,8.04282258 C61.1118462,8.04282258 61.1566154,19.4103548 61.134,20.9459516 C61.1118462,22.4820161 60.6627692,23.375871 60.6627692,23.375871 L64.2530769,24.3389516 L65.7563077,21.4501774 L64.7021538,21.1068548 L64.6338462,11.4793226 L66.7666154,7.83701613 L68.3376923,8.47641935 L68.3376923,9.8978871 C68.3376923,9.8978871 68.3593846,18.3331452 68.3593846,20.5558548 C68.3593846,22.7799677 67.9333846,23.375871 67.9333846,23.375871 L71.5010769,24.3389516 L73.0947692,21.403871 L71.8606154,21.0156452 L71.8149231,11.7777419 L74.1036923,7.83701613 L75.2709231,8.29353226 C75.2709231,8.29353226 75.2935385,18.3560645 75.2709231,20.3958871 C75.2483077,22.4371129 74.7992308,23.2378871 74.7992308,23.2378871 L78.7278462,24.3389516 L80.2306154,21.3814194 L78.7721538,20.9459516 C78.7721538,20.9459516 78.7061538,10.0138871 78.7278462,8.27108065"/><path d="M88.8710769,21.0872097 L85.3264615,20.1704355 L85.2812308,17.9472581 L89.7913846,9.71874194 L90.3313846,9.05454839 L85.932,4.40191935 L83.778,6.92351613 L81.3987692,7.56525806 C81.3987692,7.56525806 81.7352308,8.57277419 81.7587692,10.2458871 C81.78,11.919 81.7587692,20.8584839 81.7587692,20.8584839 L81.4213846,22.6461935 L88.1316923,24.3412903 L90.3770769,20.3084194 L89.2758462,19.9650968 L88.8710769,21.0872097 Z M85.2373846,8.59616129 L87.7947692,11.5752097 L85.26,16.3653548 L85.2373846,8.59616129 L85.2373846,8.59616129 Z"/><path d="M95.8301538,7.26309677 L96.4144615,5.88746774 L92.6884615,4.39817742 L90.8035385,7.51520968 L92.3746154,8.1345 C92.3746154,8.1345 92.3773846,15.7961129 92.3963077,19.2129677 C92.4170769,22.6293548 91.8521538,23.2696935 91.8521538,23.2696935 L95.7849231,24.2991935 L97.5373846,21.3552258 C97.5373846,21.3552258 95.9058462,20.8191935 95.8463077,20.8191935 C95.7849231,20.8191935 95.8301538,7.26309677 95.8301538,7.26309677"/><polyline points="96.728 1.236 94.887 .479 94.013 3.665 94.507 3.825 96.728 1.236"/><path d="M107.703692,1.60295161 L107.029846,1.16748387 C107.029846,1.16748387 107.008154,1.21285484 106.423846,1.76198387 C105.840462,2.31204839 105.032769,1.73906452 105.032769,1.73906452 L103.035231,0.455580645 L101.037692,2.61046774 L98.3893846,3.41264516 L98.7941538,4.92532258 L98.8389231,28.3947419 L100.185692,28.4171935 C100.185692,28.4171935 100.208308,27.8675968 100.365231,27.4545806 C100.522154,27.0425 100.902462,26.8133065 101.353385,26.5841129 C101.802,26.3549194 102.362769,26.3787742 102.362769,26.3787742 L102.340154,11.5031774 L102.384462,4.07777419 C102.384462,4.07777419 103.125692,4.39817742 103.820308,4.62783871 C104.516308,4.85609677 105.818308,4.16898387 105.818308,4.16898387 L107.703692,1.60295161"/><path d="M109.342615,1.16748387 L106.941231,4.67320968 L104.585077,7.1718871 L105.864923,7.1718871 C105.864923,7.1718871 105.886615,18.0810323 105.886615,20.1208548 C105.886615,22.1611452 105.326769,23.1929839 105.326769,23.1929839 L109.276154,24.2921774 L111.003231,21.2897419 L109.32,20.8089032 L109.365231,7.14756452 L111.339231,7.1251129 L112.753846,4.35280645 L109.32,4.37525806 L109.342615,1.16748387"/><path d="M120.360923,20.9885161 L116.815846,20.0712742 L116.770615,17.8485645 L121.280308,9.62004839 L121.819385,8.9553871 L117.421385,4.30322581 L115.267846,6.82482258 L112.888154,7.46469355 C112.888154,7.46469355 113.224154,8.4736129 113.247692,10.1476613 C113.270308,11.8203065 113.247692,20.7597903 113.247692,20.7597903 L112.910769,22.5470323 L119.620154,24.2430645 L121.864615,20.2097258 L120.764769,19.8654677 L120.360923,20.9885161 Z M116.725385,8.49840323 L119.284615,11.4765161 L116.748,16.2675968 L116.725385,8.49840323 L116.725385,8.49840323 Z"/><path d="M129.105692,14.918629 C129.105692,14.918629 129.396923,14.6202097 129.936923,14.0935323 C130.474154,13.5668548 130.901538,12.7398871 131.238,11.8689516 C131.375538,11.5120645 131.415231,11.0242097 131.414308,10.5728387 C131.413385,9.92267742 131.328,9.34782258 131.328,9.34782258 L129.981231,4.28404839 L129.105692,4.28404839 L126.501692,8.98158065 L126.48,6.46045161 L126.838615,5.40616129 L123.72,4.28404839 C123.72,4.28404839 123.136615,5.15498387 122.710154,5.81870968 C122.284615,6.48337097 121.699846,7.19433871 121.699846,7.19433871 L123.181846,7.72195161 C123.181846,7.72195161 123.181846,16.9584516 123.204,19.7092419 C123.227538,22.458629 122.777077,22.8028871 122.777077,22.8028871 L127.916769,24.2005 L130.339846,20.2134677 L129.083538,19.8004516 L128.790462,21.0156452 L126.525231,20.3734355 L126.525231,10.7692903 C126.525231,10.7692903 127.489846,9.07325806 127.601538,8.86745161 C127.714154,8.66117742 127.937538,8.36322581 127.937538,8.36322581 C127.937538,8.36322581 128.386615,9.71546774 128.656154,10.6771452 C128.926615,11.6411613 129.150923,12.3053548 129.128308,12.8095806 C129.105692,13.3138065 128.342308,14.1389032 128.342308,14.1389032 L129.105692,14.918629"/></g></svg>
