<svg width="128" height="32" viewBox="0 0 128 32" xmlns="http://www.w3.org/2000/svg"><path d="M119.614118,20.7858824 C119.702949,21.2117692 119.751788,21.6450251 119.76,22.08 C119.778191,21.6650624 119.860744,21.2554708 120.004706,20.8658824 L122.287059,14.1505882 C122.865882,12.4188235 122.847059,11.1623529 122.075294,10.1741176 L122.103529,10.1176471 L127.642353,12.1788235 L127.642353,12.2447059 C126.489412,12.5835294 125.604706,13.5341176 125.025882,15.28 C124.705882,16.3247059 119.623529,31.2329412 119.623529,31.2329412 L116.828235,30.1741176 L114.075294,16.5270588 C113.984354,16.1031027 113.93549,15.6712043 113.929412,15.2376471 C113.909451,15.6523669 113.826952,16.0616914 113.684706,16.4517647 C113.449412,17.2329412 111.162353,24.0752941 111.162353,24.0752941 C110.649412,25.8917647 110.72,27.1435294 111.449412,28.0988235 L111.425882,28.16 L105.505882,26.4188235 L105.505882,26.3529412 C106.710588,26.0141176 107.736471,25.1011765 108.296471,23.36 L112.061176,11.5952941 C112.64,9.67058824 112.489412,7.91058824 111.44,6.88941176 L111.44,6.82823529 L116.898824,8.41411765 L119.614118,20.7858824 Z M100.611765,6.58823529 C97.9388235,6 96.1552941,9.23764706 95.2376471,13.4211765 C94.2729412,17.8305882 94.72,21.2423529 97.1670588,21.7788235 C99.52,22.2917647 101.477647,19.4258824 102.442353,15.0023529 C103.383529,10.8188235 103.284706,7.17647059 100.611765,6.58823529 L100.611765,6.58823529 Z M107.143529,16 C105.731765,21.8494118 101.388235,25.8823529 96.2870588,24.7811765 C90.7247059,23.5858824 89.0164706,18.3529412 90.4611765,12.3670588 C91.8729412,6.47529412 95.9152941,2.76235294 101.105882,3.63294118 C107.261176,4.66823529 108.527059,10.3152941 107.143529,16 L107.143529,16 Z M80.2964706,22.1176471 C77.6894118,22.0376471 77.4070588,21.2988235 75.9294118,20.96 C75.1597582,20.7415523 74.3327352,20.9765434 73.7929412,21.5670588 L73.7270588,21.5670588 L74.0423529,14.3482353 L74.1035294,14.3482353 C74.8888327,16.1499235 76.2184623,17.6605671 77.9058824,18.6682353 C79.5011765,19.5576471 81.12,19.1905882 81.9435294,18.1411765 C82.7978896,16.9980639 82.6982798,15.4043079 81.7082353,14.3764706 C80.5788235,13.2235294 78.7905882,12.4470588 77.2894118,11.2941176 C74.2588235,8.94117647 74.4658824,5.81647059 75.4070588,4.06588235 C76.7294118,1.62352941 79.5058824,0.630588235 81.9952941,0.870588235 C83.5058824,1.01647059 84.1835294,1.40235294 85.2329412,1.74117647 C85.9398325,1.98853722 86.7081381,1.99845084 87.4211765,1.76941176 L87.4823529,1.76941176 L87.0117647,7.47294118 L86.9458824,7.47294118 C86.4047059,5.96705882 84.5929412,4.08941176 82.7105882,3.73647059 C81.0541176,3.43058824 80.1364706,4.01882353 79.7317647,4.67764706 C79.1058824,5.73176471 79.3835294,6.89882353 80.5223529,7.68941176 C82.1741176,8.83294118 84.1835294,9.68470588 85.5058824,10.9317647 C87.4258824,12.7435294 88.0376471,15.9529412 86.3294118,18.7952941 C85.0132617,20.849523 82.7408698,22.0912672 80.3011765,22.0894118 L80.2964706,22.1176471 Z M70.8188235,0.611764706 L70.6635294,5.11058824 L70.5882353,5.11058824 C69.8682353,3.43529412 68.0564706,3.09647059 66.4282353,3.11058824 L62.9035294,3.14823529 L62.8094118,8.57411765 L64.5929412,8.62588235 C66.9458824,8.67294118 67.6705882,8.47529412 68.5411765,6.97411765 L68.6023529,6.97411765 L68.3764706,13.4211765 L68.3152941,13.4211765 C67.5294118,11.7458824 65.7741176,11.6329412 64.1505882,11.6470588 L62.8141176,11.6470588 L62.6729412,17.6329412 L66.3529412,17.7082353 C68.7058824,17.7552941 69.92,17.0964706 70.6870588,15.7223529 L70.7482353,15.7223529 L70.1176471,21.04 C65.7694118,20.8941176 60.7811765,20.8658824 56.8894118,21.04 L56.8894118,20.9741176 C57.7694118,20.3952941 58.2494118,19.0917647 58.2588235,17.1152941 L58.4,4.27294118 C58.4,2.44705882 58.2870588,1.28 57.0258824,0.644705882 L57.0258824,0.578823529 C61.2611765,0.423529412 66.6541176,0.414117647 70.8282353,0.602352941 L70.8188235,0.611764706 Z M47.0823529,1.24235294 L53.3317647,0.771764706 L53.3317647,0.837647059 C51.6988235,1.60941176 51.8729412,3.01176471 52.0376471,5.18588235 L52.8705882,17.5858824 C53.0729412,19.3976471 53.52,20.8047059 54.3247059,21.1529412 L54.3247059,21.2188235 C54.3247059,21.2188235 52.8658824,21.3082353 50.8564706,21.4682353 C48.8470588,21.6282353 47.3694118,21.7788235 47.3694118,21.7788235 L47.3694118,21.7176471 C48.1035294,21.2235294 48.7294118,19.6941176 48.5882353,17.8164706 C48.5882353,17.8164706 48.0470588,9.75058824 47.9952941,9.07764706 C47.9509255,8.650561 47.9509255,8.22002723 47.9952941,7.79294118 C47.9195216,8.20405981 47.8221315,8.61089871 47.7035294,9.01176471 C47.5058824,9.66588235 43.6894118,22.4517647 43.6894118,22.4517647 L43.5905882,22.4517647 C43.5905882,22.4517647 37.92,11.9341176 37.4117647,11.0870588 C37.1653613,10.6761958 36.973924,10.2347825 36.8423529,9.77411765 C36.9858039,10.2362154 37.0958908,10.7080166 37.1717647,11.1858824 C37.3035294,11.9905882 38.3105882,19.0729412 38.3105882,19.0729412 C38.6352941,20.9317647 39.6141176,22.2588235 40.4423529,22.56 L40.4423529,22.6258824 L34.96,23.5294118 L34.96,23.4682353 C35.6517647,22.9317647 35.7458824,21.4588235 35.4964706,19.6517647 L33.8164706,7.34117647 C33.5576471,5.45882353 32.6070588,3.98117647 31.2235294,3.52470588 L31.2235294,3.45882353 L37.4494118,2.39529412 C37.4494118,2.39529412 42.6258824,11.8305882 43.5670588,13.2658824 C44.1223529,11.4729412 47.0917647,1.23764706 47.0917647,1.23764706 L47.0823529,1.24235294 Z M20.7388235,10.3811765 L20.2352941,18.0047059 L24,16.9411765 L20.7388235,10.3811765 Z M29.9576471,24.5929412 C28.6070588,24.9364706 26.3011765,25.4541176 26.3011765,25.4541176 L26.3011765,25.3929412 C26.8376471,24.8988235 27.4211765,23.7270588 26.5835294,22.0988235 L25.3270588,19.5623529 L20.0235294,20.9741176 L19.8023529,24 C19.8023529,25.7882353 20.7435294,26.56 21.44,26.7152941 L21.44,26.7811765 C21.44,26.7811765 19.7647059,27.2941176 18.4329412,27.6847059 C17.1011765,28.0752941 15.4964706,28.5929412 15.4964706,28.5929412 L15.4964706,28.5270588 C16.0094118,28.0894118 16.5694118,26.5976471 16.6776471,24.8611765 C16.9411765,20.2352941 17.3882353,13.3082353 17.7788235,10.2117647 C17.9670588,8.72470588 17.7788235,7.31294118 16.6352941,6.91764706 L16.6352941,6.84235294 C16.6352941,6.84235294 18.2494118,6.37176471 20.2117647,5.90117647 C21.8588235,5.51058824 23.8211765,4.99764706 23.8211765,4.99764706 L23.8447059,5.07294118 C23.0588235,6.08941176 23.6517647,7.15294118 24.3717647,8.47058824 C25.0917647,9.78823529 30.8658824,20.4 31.3552941,21.28 C32.2117647,22.7529412 32.7670588,23.3458824 33.6329412,23.7411765 L33.6329412,23.8070588 L29.9482353,24.5976471 L29.9576471,24.5929412 Z M4.94117647,13.0588235 C4.71206743,12.1100357 3.93017305,11.3951608 2.96470588,11.2517647 L2.96470588,11.1905882 C2.96470588,11.1905882 4.79058824,10.5176471 6.11294118,10.0658824 C7.43529412,9.61411765 9.41176471,8.94117647 9.41176471,8.94117647 L9.44,9.00705882 C8.93647059,9.47764706 8.71058824,10.4188235 8.99764706,11.5529412 C8.99764706,11.5529412 11.5105882,21.4352941 11.8729412,22.72 C12.2352941,24.0047059 12.7247059,24.7529412 13.4070588,24.8423529 L13.4070588,24.9035294 C13.0541176,25.2470588 12.7764706,26.0988235 12.4188235,26.88 C12.0611765,27.6611765 11.3364706,30.1176471 8.4,31.2423529 C5.2,32.4894118 1.93882353,31.7129412 0.550588235,29.4729412 C-0.357647059,28 -0.16,25.9764706 1.29411765,25.1482353 C2.20456391,24.5422725 3.42175736,24.6962227 4.15266284,25.5097831 C4.88356832,26.3233434 4.9067306,27.5500154 4.20705882,28.3905882 C4.12235294,28.4658824 4.20705882,28.6070588 4.4,28.7388235 C5.23385457,29.2955838 6.31655518,29.3121557 7.16705882,28.7811765 C8.36235294,28.1411765 8.76705882,27.1105882 8.14588235,24.7247059 C7.64235294,22.8141176 5.28941176,14.3717647 4.93647059,13.0541176 L4.94117647,13.0588235 Z" fill-rule="nonzero" fill="#FFF"/></svg>
