<svg width="72" height="44" viewBox="0 0 72 44" xmlns="http://www.w3.org/2000/svg"><g fill-rule="nonzero" fill="#FFF"><path d="M3.77534786,42.9095285 C2.1265092,42.657405 1.12658913,42.0562194 0.722532281,40.9424618 L0.507555736,40.3498888 L0.181413332,37.3543134 L0.181413332,34.2706422 L1.64422219,34.2480539 C2.94613105,34.227953 3.1185675,34.2410085 3.21193042,34.3665598 C3.29096041,34.4728586 3.31683052,35.1665829 3.31683052,37.1796027 C3.31683052,39.7053671 3.32620775,39.8706169 3.48826103,40.1998512 C3.58254715,40.391399 3.7895008,40.6455067 3.94815447,40.7645303 C4.56152379,41.2246503 4.50545058,41.2192153 8.64435366,41.2188415 L12.4722507,41.2188415 L12.7924554,40.6053769 C12.9728582,40.2597656 13.3470472,39.7429376 13.64947,39.4216976 C13.9447075,39.1080637 14.18628,38.830433 14.18628,38.8047246 C14.18628,38.7790162 13.7629838,38.7475277 13.2456542,38.734731 L12.3050284,38.711467 L12.3242618,38.3959495 C12.3690432,37.6618941 13.3511262,36.2630147 14.3551136,35.5032077 C14.6321192,35.2935721 15.1307365,34.9984862 15.4631345,34.8474565 C16.6273767,34.3184788 16.7345325,34.3118216 24.0407129,34.314381 L30.615847,34.3166815 L32.6032383,35.7534333 C33.6962949,36.5436504 34.6308676,37.1901851 34.6800617,37.1901851 C34.7915869,37.1901851 37.8220858,35.3452333 38.7249414,34.7276852 L39.3926406,34.2709729 L41.9430865,34.278162 C44.5484023,34.285495 44.4864342,34.283482 44.5989319,34.3427206 C44.7625834,34.428861 44.7043168,34.4783224 44.7043168,37.2368858 C44.7043168,39.603655 44.725626,40.1237613 44.8329271,40.3763305 C44.9996559,40.7687863 45.1717556,40.950298 45.5822342,41.1666483 C45.9039486,41.3361972 46.0341556,41.343904 49.0030929,41.3690085 C50.7006322,41.3833868 52.1769937,41.3734658 52.2839173,41.3471103 L52.4783278,41.2991156 L52.5001451,37.8673025 L52.5219624,34.435475 L54.0687693,34.435475 L55.6155762,34.435475 L55.6573818,37.8480931 L55.6991874,41.2606967 L61.3100058,41.2818328 L66.9208388,41.3029546 L67.1520179,41.1241172 C67.2791621,41.0257553 67.4355701,40.8219716 67.4995995,40.6712726 C67.5990764,40.4371364 67.5990764,40.3573943 67.4995995,40.123258 C67.4355701,39.9725591 67.2794959,39.7690198 67.1527582,39.6709886 L66.9223194,39.492712 L61.8017586,39.492712 C57.353513,39.492712 56.6675239,39.4765364 56.5771629,39.3694324 C56.443385,39.2108973 56.5816628,38.22653 56.8290706,37.576185 C57.0203021,37.0734908 57.4940263,36.3173791 57.9089613,35.8526148 C58.3161303,35.3965207 59.3098115,34.7785125 59.9675528,34.5722989 C60.5434103,34.391765 60.5917335,34.3903271 65.3562645,34.4128004 L70.1639076,34.435475 L70.1882651,35.1686102 C70.2059018,35.6996584 70.1828943,35.9203079 70.1046539,35.9691078 C70.0452697,36.0061607 68.1233302,36.0370453 65.8336902,36.0377355 C61.8792296,36.0391733 61.6547858,36.0469376 61.3525808,36.1986143 C60.8101532,36.4707812 60.1720083,37.3497699 60.2925477,37.6587165 C60.3260938,37.7447131 61.1344804,37.7658492 64.3880006,37.7658492 C67.070918,37.7658492 68.5914657,37.797122 68.8847145,37.858316 C69.5400607,37.9950681 70.0511486,38.2808081 70.4805414,38.7505328 C70.976257,39.2927961 71.1533646,39.8091209 71.1109784,40.5885111 C71.0423185,41.8512136 70.2031584,42.7276142 68.8571199,42.9424261 C68.0956049,43.0639515 45.0691432,43.0603138 44.2711354,42.9385439 C42.8845397,42.7269528 42.1777494,42.3184365 41.761958,41.4882477 L41.4853008,40.9358334 L41.4434952,38.1035667 C41.416249,36.257781 41.3714967,35.2614509 41.3150301,35.2429892 C41.1148713,35.1775967 36.343213,38.1877086 36.343213,38.3793713 L42.2902762,43.132004 C42.2902762,43.1802144 41.2480105,42.9464376 39.8834208,42.9464376 L37.6544715,42.9464376 L35.6694898,41.5485072 C34.5777687,40.7796419 33.6320478,40.1505768 33.5679024,40.1505768 C33.4532273,40.1505768 30.1241522,42.1363209 29.2487751,42.7268809 L28.8014117,43.0286671 L16.623501,43.0204715 C7.34954159,43.0142888 4.28575639,42.9878902 3.77534786,42.9098448 L3.77534786,42.9095285 Z M27.5815304,41.6249279 C27.8708309,41.4410294 28.9352622,40.782345 29.9469575,40.161188 C30.9586528,39.5400166 31.7864035,38.9892414 31.7864035,38.9372494 C31.7864035,38.8510515 27.5459521,35.6036258 26.8428198,34.9887377 C26.5882556,34.7661184 26.2771378,35.3932712 26.4244735,35.6362501 L26.074163,36.0268655 L22.2129376,36.0386557 C18.0009081,36.0514524 17.8996602,36.0836454 17.5725169,36.2572634 C17.079719,36.5187903 15.9640468,37.5041353 15.9640468,37.8073018 C15.9640468,37.9455636 16.8618219,37.8948082 21.1522368,37.8960016 C23.6469855,37.8974394 25.7661951,37.8911129 25.7661951,37.8911129 C25.7513745,37.9645286 25.7608243,38.7885203 25.7608243,38.7885203 L25.7663403,39.3690873 L21.9202259,39.4101949 C17.7730386,39.4545376 17.979236,39.4315898 17.3469554,39.9189567 C17.0034383,40.1837188 16.2718114,41.1634994 16.3982298,41.2878142 L26.7696745,41.2604092 L26.795382,42.0797855 C26.814151,42.6779659 26.9094184,42.0522223 27.5814723,41.6250285 L27.5815304,41.6249279 Z"/><path d="M0.211060464,34.2135172 L0.211060464,34.9921454 L3.4928669,34.9921454 L3.4928669,34.2135172 L0.211060464,34.2135172 Z M52.0532172,34.2597722 L52.0532172,35.0409741 L55.6489336,35.0409741 L55.6489336,34.2597722 L52.0532172,34.2597722 Z M39.4085354,34.2623603 L39.1153882,34.4653819 L40.2880061,34.4653819 C40.67494,34.456036 40.9405362,34.4770283 41.1363547,34.5116369 L41.1337419,35.0538426 L44.5815855,35.0538426 L44.5815855,34.264934 L43.0665102,34.285495 C41.6626407,34.2754301 40.6692063,34.2685717 39.4085209,34.2623603 L39.4085354,34.2623603 Z M25.4563257,34.3086153 C24.7582739,34.3100531 23.9498002,34.3130725 23.0176662,34.3163795 C17.2482333,34.336883 16.7819412,34.3473792 16.5915516,34.4808529 C16.5915516,34.5392576 16.327349,34.6474256 16.9858887,34.6016307 C17.0834641,34.5948729 17.127447,34.6121268 17.2686716,34.5964545 C18.1847076,34.6109766 19.654508,34.5810266 22.8360732,34.5810266 C26.4076932,34.5810266 29.3743951,34.5969721 29.3737419,34.5630393 C29.3715645,34.4537067 29.5676298,34.3896514 29.1298759,34.3523253 C28.6524067,34.3116203 27.5504665,34.3043018 25.4563257,34.308644 L25.4563257,34.3086153 Z M67.0820806,34.3754312 C66.5369531,34.3768691 65.9057758,34.3798885 65.1778505,34.3831955 C60.6723835,34.403699 60.3065265,34.4167688 60.1578553,34.5502282 C60.1578553,34.6086329 59.9523112,34.7142272 60.466578,34.6684466 C60.5427716,34.6616888 60.5768112,34.6815309 60.6871025,34.6658585 C61.4024426,34.6803806 62.5506158,34.6504306 65.0351598,34.6504306 C67.8243186,34.6504306 70.1412774,34.6663618 70.1407693,34.6324434 C70.1390274,34.5231108 70.2906598,34.4590411 69.9487975,34.4217294 C69.5759293,34.3810244 68.7174341,34.3711321 67.0820806,34.3754744 L67.0820806,34.3754312 Z"/><path d="M59.2953672,3.67824999 C59.0858472,3.34163237 59.7987995,2.39515477 60.5922986,1.95871005 C61.4902668,1.46480244 61.8430406,1.43110401 66.1283794,1.42986604 L70.1327091,1.47699524 L70.1947585,2.12167803 C69.9859294,2.13171409 69.1929078,2.13446035 66.0470283,2.1376552 C61.426056,2.14235691 61.3746032,2.14748996 60.7387154,2.66594852 C60.5346258,2.83235292 60.3246078,3.08932625 60.2621869,3.24901167 C60.2192476,3.35886189 60.2211346,3.45163788 60.1487616,3.51961274 C59.9638328,3.61326725 59.7469344,3.69988214 59.5761252,3.74438586 C59.4991608,3.76422648 59.4205561,3.81778134 59.3738151,3.79409021 C59.3412895,3.77760549 59.3609541,3.7774919 59.3317933,3.73817012 L59.2953672,3.67824999 Z" transform="translate(.074 34.15)"/><path d="M14.7296355,4.27323274 C14.7281839,4.18548772 14.7905323,3.93335413 14.875029,3.68376694 C15.0927969,3.0405191 15.6395284,2.42201776 16.3581723,2.00593127 C17.22223,1.5056512 17.4580223,1.48437418 22.188865,1.47971705 C24.8097693,1.47714334 26.3397654,1.47971705 26.3397654,1.47971705 C26.3397654,1.47971705 26.3397654,1.69020389 26.3397654,1.85095187 C26.3397654,1.99580175 26.3397654,2.24093598 26.3397654,2.24093598 C26.1362825,2.21655326 24.7058766,2.24637098 22.2244926,2.24637098 C17.8905853,2.24637098 17.6842704,2.23305667 17.0682432,2.60735407 C16.9164047,2.699611 16.6413283,2.93719519 16.4730216,3.12757828 C16.2490757,3.38090239 16.0281245,3.60828229 15.9171321,3.86376746 C15.7167759,4.04002531 15.4599197,4.04488806 15.2688231,4.13207808 C14.8807047,4.30916124 14.7172419,4.34351244 14.7172419,4.34351244 L14.7296355,4.27323274 Z" transform="translate(.074 34.15)"/><path d="M67.3087762,6.61583051 C67.4259335,6.15346746 66.8373485,5.5404198 66.1761626,5.39271151 C66.0130787,5.35627689 63.8654079,5.34579511 61.4035564,5.36941866 C58.941705,5.39304221 56.79485,5.35863493 56.6263807,5.35647819 C56.4494646,5.35403388 56.3800195,5.36898731 56.3465721,5.33023779 C56.2809112,5.25426284 56.4362959,5.06968858 56.7432651,4.83713393 L57.0960273,4.56987005 L61.4272651,4.57432732 C66.212352,4.57921595 66.893728,4.61625445 67.2857759,4.89277795 C67.9536347,5.3638255 68.2242331,6.12882305 67.8771204,6.56451435 C67.6493336,6.85044126 67.0136622,7.24480932 66.8716828,7.15789249 C67.2247746,6.87166363 67.2042753,6.88430216 67.3087762,6.61583051 L67.3087762,6.61583051 Z" transform="translate(.074 34.15)"/><path d="M52.3431844,7.330504 C52.2068634,7.25388203 52.004774,7.25966211 51.9751109,7.18308327 C51.9454478,7.10651882 51.9360023,5.42576722 51.9360023,3.57373411 C51.9360023,1.20890461 51.9302831,0.469071968 51.9090726,0.0871785197 C52.0261558,0.0812977942 52.3030743,0.207519155 52.5385225,0.440736648 L52.9185223,0.90020391 L52.8934099,7.17477262 C52.8926841,7.30423485 52.9074757,7.43641457 52.8901584,7.56604934 C52.6516429,7.46381962 52.5070754,7.40117336 52.3431786,7.330504 L52.3431844,7.330504 Z" transform="translate(.074 34.15)"/><path d="M15.0959106,7.50448146 C15.0959106,7.50448146 15.0510654,7.04799913 15.2212809,6.59817396 C15.4030104,6.11789554 16.0805121,5.43051206 16.6102978,5.18887032 C17.4268045,4.81645793 17.6043172,4.8028273 21.6492477,4.80186395 C24.4547658,4.80042612 25.6780583,4.82268373 25.6780583,4.82268373 L25.7056181,5.55660977 C25.7056181,5.55660977 24.20154,5.55934165 21.8461186,5.55948543 C19.5830731,5.55948543 18.0713103,5.58980927 17.8799539,5.63833604 C17.2765076,5.79137868 16.6332705,6.41013452 16.3928652,7.06877577 C16.3533284,7.17711628 15.2396536,7.49379838 15.1483229,7.53310865 L15.0959106,7.50448146 Z" transform="translate(.074 34.15)"/><path d="M44.5889062,8.91581243 C43.8982343,8.82821981 42.7168707,8.42843113 42.2960365,8.13987299 C41.9864414,7.92760612 41.5824571,7.47299297 41.3973469,7.12858951 C41.1623051,6.69128784 41.0664339,5.68029192 41.063538,3.60845052 C41.0619412,2.4691297 41.0706797,1.49667051 41.0317062,1.47280972 C40.9927312,1.44895036 40.0590643,1.98121209 39.0081385,2.63023138 C37.041663,3.84466877 36.4774196,4.21888851 36.0955516,4.39304569 L34.5586677,4.40052241 C34.7575172,4.21638813 40.5787281,0.55009945 40.8855681,0.423107412 C41.0963234,0.335882882 40.9587888,0.313412472 41.0593763,0.370491455 C41.2079269,0.454788563 41.698353,0.635840139 41.7576588,0.772986134 C41.8627491,1.01600244 41.7810482,1.5152861 41.8120366,3.23038601 C41.8664695,6.24311617 41.8999648,6.40780524 42.5949769,7.07991896 C42.8867059,7.36203562 43.2269062,7.58581951 43.6044107,7.74392332 C43.6044107,7.74392332 44.0094285,7.86461478 44.2157463,7.90969076 C44.3612153,7.94148118 44.6564295,7.98326453 44.6564295,7.98326453 L56.121433,8.00429998 L67.8763292,8.01148913 C67.8763292,8.01148913 68.1534655,7.96806666 68.2854405,7.92306258 C68.3864112,7.88862655 68.4779059,7.83134339 68.5741371,7.78549099 C70.0893474,7.06348456 70.6154301,6.08512739 70.0706902,5.00234061 C69.9539263,4.77024607 69.7086814,4.44637482 69.5256992,4.28262753 C69.3427184,4.11888167 69.0713421,3.86257838 69.0857113,3.82075046 C69.1251566,3.70592966 70.0421289,4.18422818 70.3160774,4.45511682 C71.0008429,5.13221981 71.2908038,6.49285289 70.8426639,7.40013812 C70.3822362,8.33229781 69.4498815,8.81717728 68.1408715,8.93306639 C67.0801882,9.02698546 45.3399234,9.01095365 44.5889062,8.91571178 L44.5889062,8.91581243 Z" transform="translate(.074 34.15)"/><path d="M3.66102133,8.88745842 C2.7757229,8.76255411 2.37062323,8.62489625 1.77179994,8.24546724 C1.19320039,7.8788493 0.754752634,7.370792 0.444844982,6.70783726 C0.389933047,6.59036654 0.326476645,6.47618844 0.283060202,6.35410228 C0.246062399,6.25004651 0.219099389,6.14225238 0.199774116,6.03360993 C0.161448346,5.81816546 0.147832309,5.59882446 0.135682617,5.3803893 C0.0978186828,4.69963422 0.108436359,3.33521677 0.108436359,3.33521677 L0.0789050203,0.272093546 C0.0780253609,0.180799956 0.0712997412,0.0520710201 0.0712997412,0.0520710201 C0.0712997412,0.0520710201 0.40831199,0.222126072 0.649972725,0.428375622 L1.09672861,0.809666619 L1.09951711,2.93837133 C1.10261914,5.30713186 1.14701914,5.58146985 1.51804987,6.36114765 C1.74124455,6.83015348 2.2286558,7.24706672 3.01558451,7.64205305 C3.94100121,8.10655847 3.91979867,8.10576766 15.5736353,8.10576766 L26.2607383,8.10576766 L26.7972797,7.71516671 C27.0923763,7.5003405 28.236668,6.7695058 29.3401483,6.09109438 C30.4436301,5.41268297 31.3467151,4.81829835 31.3470054,4.77021731 C31.3480215,4.59533402 30.8437735,4.21649165 27.0924228,1.57392944 C26.3696346,1.06477652 25.8131615,0.697170786 25.5320233,0.443091814 C25.8005647,0.44964832 26.4149458,0.458384576 26.7996893,0.458630445 L27.4041764,0.459061794 L29.2305727,1.74734326 C30.2350899,2.45589879 31.4305077,3.29998562 31.8870567,3.62309194 C32.3436043,3.94619971 32.96918,4.42288067 32.9093196,4.46092566 L30.6003692,5.92854768 C29.8978262,6.3750946 29.1268005,6.84526507 28.8984998,6.991363 C28.6702007,7.13746092 28.2125644,7.4297718 27.8815295,7.64094592 C27.5504945,7.85210566 27.2574112,8.11299995 27.2574112,8.15786025 C27.324123,8.19793257 27.5664314,8.18769522 27.964547,8.18726387 L28.6494459,8.18582604 L30.9936088,6.67121573 C32.2828991,5.83818006 33.4115717,5.13339883 33.5017687,5.10504482 C33.7298922,5.03332585 33.8040391,5.07847372 35.9965406,6.62421306 C37.0695493,7.38069865 38.0641116,8.1306565 38.1554321,8.17659517 C38.2467512,8.22251947 38.7278349,8.18752268 39.2757538,8.21317357 C39.6730608,8.23172158 39.8878181,8.20713469 40.1545871,8.25183683 C41.5750192,8.76531474 40.3235035,8.31780448 42.1841572,8.99384347 L37.3623568,8.9987321 C37.1067011,8.86609226 34.7416398,7.17746136 34.0904045,6.65373171 C33.7918124,6.41358532 33.4948519,6.21638691 33.4304901,6.21549545 C33.3661299,6.21405762 32.97387,6.44438364 32.5588015,6.72611209 C32.1437329,7.00784053 31.20888,7.63690562 30.481351,8.12404248 L29.1585698,9.00970274 L16.7833773,9.00093198 C7.20224249,8.99417417 4.23949009,8.96840826 3.66102147,8.88679702 L3.66102133,8.88745842 Z" transform="translate(.074 34.15)"/><path d="M44.9477763,41.1845349 C44.4130276,41.0416864 44.0423078,40.7719639 43.8906319,40.5680508 C43.7923598,40.4359286 43.7873663,40.4625141 43.7625733,40.3883508 C43.7393625,40.3189036 43.6842313,40.1991898 43.6732574,40.1268526 C43.5616742,39.3922795 43.570224,37.6512685 43.570224,37.6512685 L43.570224,35.1187175 L44.0336854,34.7098562 C44.2885834,34.4849795 44.5118224,34.2864727 44.5297785,34.2687155 C44.5477345,34.2509583 44.5774339,34.2625328 44.6470228,34.3196866 C44.7560512,34.4093065 44.7107038,34.8914541 44.7109796,37.4157088 C44.7109796,40.7499076 44.9791886,40.8360336 45.6938465,41.2508764 C46.003832,41.3318981 45.3792303,41.3073687 44.9477763,41.1845349 L44.9477763,41.1845349 Z M3.45382803,41.0122109 C2.99684356,40.9024613 2.60381438,40.514089 2.52281895,40.2902476 L2.41792176,40.0003523 C2.34901656,38.3278826 2.3013698,36.6827029 2.3013698,34.9614764 L2.63017368,34.636153 C2.99825885,34.2719793 3.46266672,34.2043438 3.46266672,34.2043438 C3.49337205,34.2675796 3.48399918,35.635445 3.49609377,37.2373459 C3.52242549,40.7250475 3.47110622,40.4688118 4.22626762,40.883065 C4.44060402,41.0006508 4.85876445,41.1138799 4.83499622,41.1526438 C4.7842663,41.2353622 3.81762377,41.0995735 3.45382803,41.0122109 L3.45382803,41.0122109 Z M54.5286018,38.3388533 L54.5286018,35.0169911 L54.8202829,34.7633147 C55.1385134,34.4865611 55.6002765,34.2249767 55.6622446,34.2863576 C55.7140806,34.3377026 55.7272175,41.1365545 55.6748734,41.2714948 C55.65249,41.3292812 55.4227915,41.440483 55.2006702,41.5186291 C54.9048376,41.6226992 54.562714,41.7155256 54.5688397,41.682398 C54.5241309,41.7175817 54.5285437,40.5760308 54.5285437,38.3388533 L54.5286018,38.3388533 Z"/><path d="M56.3928118,39.4885998 C56.3954247,39.0671286 56.65385,37.7903786 57.0101846,37.067912 C57.4609592,36.1539984 58.2646717,35.2761887 59.0017275,34.8927769 C59.2842927,34.7457731 59.5596289,34.625283 59.6135843,34.6250098 C59.9134378,34.5358787 60.3756509,34.4542675 60.7711637,34.4219019 C60.4781326,34.5518961 60.2326264,34.6272672 59.895322,34.8226108 C59.4370573,35.070809 59.0288286,35.2891723 58.3962432,36.0554639 C58.1705946,36.3288098 58.001311,36.563248 57.8320854,37.0334904 C57.606074,37.6615346 57.5440623,38.3051505 57.4805846,38.7102304 C57.2609166,38.8288514 57.276434,38.8839491 56.3928118,39.4885998 L56.3928118,39.4885998 Z M12.0563867,38.6784975 C12.0563867,38.3833541 12.4533366,37.4717985 12.9232721,36.6886987 C13.4659464,35.7843898 13.9629394,35.3471744 14.8831545,34.9645678 C15.5615809,34.6824799 16.7923491,34.3967543 17.1091136,34.4053812 C17.3001419,34.4105574 16.5827115,34.6501718 16.1799407,34.7984121 C15.4722359,35.0588607 15.0520897,35.371675 14.4365764,35.985686 C14.0554052,36.3659346 13.6741905,36.8546243 13.1283663,38.2051638 L12.9578633,38.7370891 L12.4700588,38.7297562 C12.121766,38.72458 12.1156839,38.7140838 12.0563867,38.6785119 L12.0563867,38.6784975 Z M28.8611153,34.315028 L30.6106068,34.3128712 C32.9419507,36.0176777 34.2571721,36.9010662 34.6740812,37.1983232 L33.6755663,37.8100625 C31.442059,36.2217202 30.8018528,35.6981343 28.8611153,34.3149848 L28.8611153,34.315028 Z"/><path d="M36.2434312,39.6991269 L34.6682023,38.540322 L35.4755147,38.540322 C35.919525,38.540322 36.3264908,38.3641016 36.3918991,38.4209534 C36.3918991,38.4209534 37.6960449,39.471202 42.2831053,43.1096313 C39.3252581,42.3580487 38.4735998,41.3399068 36.2434312,39.6991269 L36.2434312,39.6991269 Z"/><path d="M12.5974062,41.298296 C12.4590123,41.2020764 12.4651815,41.1633125 12.7020073,40.6404743 C12.987824,40.0094682 14.0139916,38.8798512 14.4299717,38.6034284 C14.5905894,38.4966983 14.8406667,38.3355894 15.0689571,38.252109 C15.2972621,38.1686429 15.5132722,38.0662694 15.7071021,37.9919911 C15.8235916,37.9473465 16.0553514,37.8858217 16.4779943,37.889632 L17.1444161,37.8956709 L16.7293214,38.0422289 C15.9437537,38.319572 15.4011229,38.6479005 14.8320007,39.1902357 C14.1805607,39.8110332 13.7872108,40.3776965 13.4798381,41.1382511 C13.3621292,41.4294836 13.2626957,41.6617507 13.2332431,41.6797811 C12.9898417,41.6743173 12.8049536,41.4398935 12.5974062,41.2983248 L12.5974062,41.298296 Z"/><path d="M17.9095171,27.9286143 C14.905881,27.6163579 12.095166,26.8209089 9.33371279,25.5016224 C7.0320716,24.4020106 5.56967267,23.3875216 4.00917515,21.8079181 C2.25911824,20.0364314 1.40557222,18.7409231 0.605494934,16.6418286 C-0.350790158,14.1329044 -0.0185814116,10.7765872 1.47547068,7.85240911 C2.73363831,5.38990886 4.31219789,3.6643472 6.78924346,2.04379337 C7.71045163,1.44111268 9.99401908,0.280806101 10.5941892,0.110454464 C11.0175529,-0.00971217469 10.3844407,0.225583057 9.66081459,0.640116543 C9.21444653,0.88511092 8.9387317,1.03624948 8.52695956,1.27827297 C7.57014022,1.85589188 7.32205825,2.06045531 6.32972357,2.85289245 C3.61812065,5.01826438 1.93426113,7.58669388 1.3300797,10.4789646 C1.13261098,11.4242622 1.13261098,13.542352 1.3300797,14.4876496 C2.04641757,17.9168207 4.12794626,20.7265012 7.67803886,23.0562262 C9.72010177,24.3963174 12.0872932,25.3831301 14.8467296,26.0446451 C17.179114,26.6037732 18.0587908,26.693504 21.2079033,26.693504 C23.5031334,26.693504 24.2478751,26.6611565 25.1659668,26.5215655 C28.0984121,26.0757241 31.2239516,25.0710487 33.3176927,23.9012775 C35.0307595,22.9441979 35.6002504,22.6107338 35.7547477,22.4742757 C35.8430229,22.3963065 36.2383835,22.1887945 36.6333257,22.0131377 C37.1065423,21.8026678 37.4429447,21.5817896 37.6198579,21.3653938 C37.8832868,21.0431739 37.9011075,21.0370255 38.5715507,21.0370227 C38.9730925,21.0370209 39.5885921,20.4616459 39.5885921,20.516775 C38.8054449,21.6236911 37.5104429,22.8546755 36.7752147,23.4150033 C35.6833707,24.2492935 34.8257921,24.8197533 33.2705729,25.5525585 C30.6544418,26.7852592 28.5124755,27.505104 25.2130866,27.8979868 C22.7948003,28.1859428 20.2214983,28.1691757 17.9095171,27.9286143 L17.9095171,27.9286143 Z" transform="translate(14.57 1.886)"/><path d="M14.579171,8.46345986 C12.8441406,8.28048615 10.2993137,7.73333346 8.95545001,7.25432563 C8.00412682,6.9152342 5.99013419,6.04330979 5.46821822,5.74458605 C4.88929412,5.41323336 3.48001847,4.37502659 2.65862406,3.67477219 C1.59339885,2.76664732 -0.114207067,0.634781397 0.0337179838,0.397700104 C0.0760249053,0.329894724 0.84067299,0.0478960136 0.980875919,0.0478960136 C1.00625346,0.0478960136 1.14742772,0.256478173 1.31520332,0.552233602 C2.07779951,1.89654092 3.21289289,3.10315667 4.47687103,4.12388745 C6.16831138,5.48981929 7.3877213,6.09365975 9.85847006,6.78880893 C14.9542892,8.22252463 20.8833724,8.15604068 25.6256111,6.61200937 C27.4775533,6.00903302 29.3515687,5.00162597 30.0564156,4.2301574 C30.247536,4.02097204 31.7636901,3.49146181 31.8700041,3.59676851 C32.003971,3.72946614 31.6477299,4.17885354 30.9127961,4.80425773 C29.6032057,5.91867541 26.34572,7.30879607 23.7373307,7.86636309 C21.3905957,8.36799796 20.5631947,8.45176712 17.6948335,8.47812559 C16.18893,8.49196461 14.7868818,8.485364 14.579171,8.46345986 L14.579171,8.46345986 Z" transform="translate(17.69 19.88)"/><path d="M23.0428657,25.162599 C22.2791153,24.9221205 21.8580255,24.6840532 20.9185029,23.9615881 C18.8534228,22.3735981 17.3606439,20.3630644 16.7016397,18.2821661 C16.3123832,17.0529996 16.2238221,16.2478664 16.2820596,14.4674545 C16.3267393,13.1012426 16.372261,12.7316354 16.5832631,12.0215831 C17.1090555,10.2522094 17.8382437,8.90671671 19.0572831,7.45657152 C21.8197328,4.17040632 26.9799073,1.691242 32.2327073,1.12653851 C33.6871064,0.970184543 36.4047311,0.956643059 36.8229177,1.10366695 C37.2527169,1.2547714 37.7022431,1.74759776 37.8467337,2.22608751 C37.9422188,2.5423095 37.9297497,2.63555567 37.7435987,2.99759556 C37.6271382,3.22409263 37.4105765,3.55741186 37.2623264,3.73830528 C37.1140907,3.91919869 36.7276648,4.41439028 36.4035989,4.83872992 C36.079533,5.26307099 35.3227792,6.20995549 34.7219109,6.94291819 C34.1210571,7.67588232 33.1426031,8.94891991 32.5475846,9.77189077 C31.446167,11.2952632 29.0346085,14.9090179 28.5534523,15.7571393 C28.4075537,16.0143182 28.1478365,16.4188086 27.9763174,16.6560075 C27.8047983,16.8932077 27.5106641,17.4085951 27.3226986,17.8013154 C27.0080389,18.4587187 26.9836959,18.5698198 27.0158775,19.20211 C27.0596717,20.0625377 27.3304936,20.5100207 28.1080486,21.0067637 C29.2784455,21.7544541 28.2146964,21.6956281 40.5647649,21.6956281 L51.5810753,21.6956281 L52.5359412,20.6761921 C53.2735776,19.8886782 53.5646055,19.4982771 53.8151923,18.9601461 C54.1814557,18.1735941 54.5601011,16.9453952 54.7237091,16.013168 C54.862553,15.2221442 54.7760096,13.1030931 54.5827604,12.5618938 C54.2190517,11.0970986 53.5757246,9.66534036 52.7818974,8.41585874 C51.2694059,6.07600579 49.1145164,4.21779864 45.9997966,2.56748303 C45.4469467,2.27456252 44.0347306,1.59957314 44.0567076,1.57777995 C44.1244529,1.51054988 46.2272742,2.38068589 47.2643432,2.89245422 C49.8259663,4.1565557 52.0285403,5.96612969 53.4914167,8.00844381 C54.5756621,9.52214398 55.475092,11.2447623 55.9186667,12.9808891 C56.1654939,13.9468996 56.1957885,14.7876535 56.1928272,15.8399137 C56.1868757,17.9401451 55.7444623,19.3192888 54.7073933,21.322504 C53.9798744,22.7278004 53.8135955,22.9077247 52.7115537,23.4822011 L51.4905691,23.9200564 L40.6213911,23.9868551 C29.5276532,24.0550356 29.4965748,23.98628 28.4153922,23.7796479 C26.1017721,23.3373685 25.15399,22.7913683 24.5496089,21.552623 C24.2497699,20.9380728 24.1827938,19.7447068 24.3999652,18.8865048 C24.8969437,16.9225596 28.3063203,11.6901374 33.0759754,5.57129002 C33.9842454,4.40609688 34.7704809,3.37283473 34.8231733,3.27514998 C35.0744714,2.80927 34.8230717,2.50084536 34.1063235,2.39570546 C33.6063403,2.32236175 31.0575347,2.71534086 29.9543606,3.03585909 C27.2577693,3.8193342 26.217202,4.21837808 24.8708732,4.98530808 C22.8444923,6.13962978 21.1827636,7.55731453 20.0292922,9.11582899 C18.7990901,10.7780239 18.3099792,11.8236299 17.844892,13.7855851 C17.5698896,14.9456797 17.6336576,16.7571516 17.9948405,18.0450938 C18.7476895,20.7296535 20.3459986,22.8163405 23.1135578,24.7278581 C23.5412377,25.0232532 23.8911563,25.2824781 23.8911563,25.3039162 C23.8911563,25.3798048 23.5546939,25.3237582 23.0428657,25.162599 L23.0428657,25.162599 Z"/><path d="M6.79973709,24.1994976 C6.03599099,23.9590187 5.61489614,23.7209517 4.67537794,22.9984874 C2.61030039,21.4104972 1.11751942,19.3999635 0.458521564,17.3190648 C0.0692575205,16.0898987 -0.019301508,15.2847649 0.0389310228,13.5043528 C0.0836163042,12.1381413 0.129132913,11.7685336 0.340134646,11.0584821 C0.865927781,9.28910802 1.59512194,7.94361581 2.81415949,6.49346966 C5.57660793,3.2073056 10.7367819,0.728140046 15.9895849,0.163437489 C17.4439787,0.00708316717 20.1616089,-0.00645845689 20.5797979,0.14056636 C21.0095906,0.291669562 21.4591183,0.784496769 21.6036044,1.2629865 C21.6990921,1.57920774 21.6866279,1.67245417 21.5004764,2.03449435 C21.384017,2.2609911 21.1674467,2.59431051 21.0192083,2.77520342 C20.8709709,2.95609726 20.4845411,3.45128864 20.1604769,3.87562871 C19.8364127,4.29996971 19.0796547,5.24685468 18.4787923,5.97981753 C17.8779299,6.71278131 16.8994816,7.98581835 16.304463,8.80878998 C15.203047,10.3321619 12.791483,13.9459164 12.3103327,14.7940382 C12.1644318,15.0512168 11.9047183,15.4557074 11.7331923,15.6929065 C11.5616655,15.9301066 11.2675338,16.4454944 11.0795661,16.8382137 C10.7649113,17.4956174 10.7405776,17.6067186 10.7727581,18.2390086 C10.8165489,19.0994367 11.0873647,19.54692 11.8649305,20.043662 C13.0353137,20.7913523 11.9715779,20.7325266 24.3216466,20.7325266 L35.3379497,20.7325266 L36.2928136,19.7130911 C37.0304464,18.9255765 37.3214752,18.5351765 37.5720621,17.9970447 C37.9383289,17.2104924 38.3169713,15.9822933 38.4805883,15.0500665 C38.6194229,14.259043 38.5328828,12.1399912 38.3396415,11.5987929 C37.9759215,10.1339969 37.1869735,8.83055478 36.3931422,7.58107249 C34.8806441,5.2412192 32.8713955,3.7153288 29.7566724,2.0650135 C29.2038282,1.77209265 26.4680444,0.317572594 27.8135757,0.61467938 C27.8813337,0.547449144 29.9841461,1.41758453 31.0212134,1.92935318 C33.582834,3.19345443 35.7854114,5.00302783 37.2482929,7.04534227 C38.3325356,8.55904241 39.2319644,10.2816614 39.6755456,12.0177874 C39.9223633,12.9837989 39.9526653,13.8245524 39.9496953,14.8768123 C39.9437667,16.9770434 39.5013419,18.3561876 38.46427,20.3594035 C37.7367423,21.7646995 37.5704701,21.9446236 36.4684349,22.5190998 L35.2474444,22.9569544 L24.3782664,23.0237545 C13.2845291,23.0919339 13.2534533,23.0231934 12.1722635,22.816547 C9.85863965,22.3742671 8.91086662,21.8282675 8.30648473,20.5895213 C8.00664686,19.974971 7.93966277,18.7816051 8.15683442,17.9234037 C8.65382045,15.9594586 12.0631965,10.7270368 16.8328491,4.60818848 C17.741118,3.44299626 18.527358,2.40973387 18.5800484,2.31204901 C18.8313403,1.84616945 18.5799541,1.537744 17.8631997,1.43260376 C17.363222,1.35926015 14.814406,1.75223939 13.7112369,2.07275785 C11.0146462,2.85623339 9.97408017,3.25527737 8.62775427,4.02220743 C6.60137399,5.17652895 4.93963743,6.59421354 3.78617298,8.15272822 C2.55597283,9.8149233 2.06686274,10.8605293 1.60177067,12.8224834 C1.3267633,13.9825779 1.39053142,15.7940507 1.75171506,17.0819919 C2.50455964,19.7665525 4.10287305,21.8532391 6.87042822,23.7647563 C7.2981096,24.0601516 7.64803073,24.3193765 7.64803073,24.3408121 C7.64803073,24.4167069 7.31156448,24.360656 6.79973709,24.1994976 L6.79973709,24.1994976 Z" transform="translate(16.297 .982)"/><path d="M6.79973709,24.1994976 C6.03599099,23.9590187 5.61489614,23.7209517 4.67537794,22.9984874 C2.61030039,21.4104972 1.11751942,19.3999635 0.458521564,17.3190648 C0.0692575205,16.0898987 -0.019301508,15.2847649 0.0389310228,13.5043528 C0.0836163042,12.1381413 0.129132913,11.7685336 0.340134646,11.0584821 C0.865927781,9.28910802 1.59512194,7.94361581 2.81415949,6.49346966 C5.57660793,3.2073056 10.7367819,0.728140046 15.9895849,0.163437489 C17.4439787,0.00708316717 20.1616089,-0.00645845689 20.5797979,0.14056636 C21.0095906,0.291669562 21.4591183,0.784496769 21.6036044,1.2629865 C21.6990921,1.57920774 21.6866279,1.67245417 21.5004764,2.03449435 C21.384017,2.2609911 21.1674467,2.59431051 21.0192083,2.77520342 C20.8709709,2.95609726 20.4845411,3.45128864 20.1604769,3.87562871 C19.8364127,4.29996971 19.0796547,5.24685468 18.4787923,5.97981753 C17.8779299,6.71278131 16.8994816,7.98581835 16.304463,8.80878998 C15.203047,10.3321619 12.791483,13.9459164 12.3103327,14.7940382 C12.1644318,15.0512168 11.9047183,15.4557074 11.7331923,15.6929065 C11.5616655,15.9301066 11.2675338,16.4454944 11.0795661,16.8382137 C10.7649113,17.4956174 10.7405776,17.6067186 10.7727581,18.2390086 C10.8165489,19.0994367 11.0873647,19.54692 11.8649305,20.043662 C13.0353137,20.7913523 11.9715779,20.7325266 24.3216466,20.7325266 L35.3379497,20.7325266 L36.2928136,19.7130911 C37.0304464,18.9255765 37.3214752,18.5351765 37.5720621,17.9970447 C37.9383289,17.2104924 38.3169713,15.9822933 38.4805883,15.0500665 C38.6194229,14.259043 38.5328828,12.1399912 38.3396415,11.5987929 C37.9759215,10.1339969 37.3326039,8.70223947 36.5387725,7.45275718 C35.0262744,5.11290389 32.8713955,3.25469755 29.7566724,1.60438225 C29.2038282,1.3114614 27.7916115,0.636471294 27.8135757,0.61467938 C27.8813337,0.547449144 29.9841461,1.41758453 31.0212134,1.92935318 C33.582834,3.19345443 35.7854114,5.00302783 37.2482929,7.04534227 C38.3325356,8.55904241 39.2319644,10.2816614 39.6755456,12.0177874 C39.9223633,12.9837989 39.9526653,13.8245524 39.9496953,14.8768123 C39.9437667,16.9770434 39.5013419,18.3561876 38.46427,20.3594035 C37.7367423,21.7646995 37.5704701,21.9446236 36.4684349,22.5190998 L35.2474444,22.9569544 L24.3782664,23.0237545 C13.2845291,23.0919339 13.2534533,23.0231934 12.1722635,22.816547 C9.85863965,22.3742671 8.91086662,21.8282675 8.30648473,20.5895213 C8.00664686,19.974971 7.93966277,18.7816051 8.15683442,17.9234037 C8.65382045,15.9594586 12.0631965,10.7270368 16.8328491,4.60818848 C17.741118,3.44299626 18.527358,2.40973387 18.5800484,2.31204901 C18.8313403,1.84616945 18.5799541,1.537744 17.8631997,1.43260376 C17.363222,1.35926015 14.814406,1.75223939 13.7112369,2.07275785 C11.0146462,2.85623339 9.97408017,3.25527737 8.62775427,4.02220743 C6.60137399,5.17652895 4.93963743,6.59421354 3.78617298,8.15272822 C2.55597283,9.8149233 2.06686274,10.8605293 1.60177067,12.8224834 C1.3267633,13.9825779 1.39053142,15.7940507 1.75171506,17.0819919 C2.50455964,19.7665525 4.10287305,21.8532391 6.87042822,23.7647563 C7.2981096,24.0601516 7.64803073,24.3193765 7.64803073,24.3408121 C7.64803073,24.4167069 7.31156448,24.360656 6.79973709,24.1994976 L6.79973709,24.1994976 Z" transform="translate(16.297 .982)"/><path d="M16.2820596,14.4674545 C16.3267393,13.1012426 16.372261,12.7316354 16.5832631,12.0215831 C17.1090555,10.2522094 17.8382437,8.90671671 19.0572831,7.45657152 C21.8197328,4.17040632 26.9799073,1.691242 32.2327073,1.12653851 C33.6871064,0.970184543 36.4047311,0.956643059 36.8229177,1.10366695 C37.2527169,1.2547714 37.7022431,1.74759776 37.8467337,2.22608751 C37.9422188,2.5423095 37.9297497,2.63555567 37.7435987,2.99759556 C37.6271382,3.22409263 37.4105765,3.55741186 37.2623264,3.73830528 C37.1140907,3.91919869 36.7276648,4.41439028 36.4035989,4.83872992 C36.079533,5.26307099 35.3227792,6.20995549 34.7219109,6.94291819 C34.1210571,7.67588232 33.1426031,8.94891991 32.5475846,9.77189077 C31.446167,11.2952632 29.0346085,14.9090179 28.5534523,15.7571393 C28.4075537,16.0143182 28.1478365,16.4188086 27.9763174,16.6560075 C27.8047838,16.8932077 27.5106641,17.4085951 27.3226841,17.8013154 C27.0080389,18.4587187 26.9836959,18.5698198 27.0158775,19.20211 C27.0596717,20.0625377 27.3304936,20.5100207 28.1080486,21.0067637 C29.2784309,21.7544541 28.2146964,21.6956281 40.5647649,21.6956281 L51.5810753,21.6956281 L52.5359412,20.6761921 C53.2735631,19.8886782 53.5646055,19.4982771 53.8151923,18.9601461 C54.1814557,18.1735941 54.5600866,16.9453952 54.7237091,16.013168 C54.862553,15.2221442 54.7760096,13.1030931 54.5827604,12.5618938 C54.2190517,11.0970986 53.3968606,9.84250692 52.6030333,8.5930253 C51.0905419,6.25317092 48.9356523,4.3949652 45.8209325,2.74464959 C45.2680971,2.45172908 44.0347306,1.59957314 44.056693,1.57777995 C44.1244529,1.51054988 46.2272742,2.38068589 47.2643432,2.89245422 C49.8259518,4.1565557 52.0285403,5.96612969 53.4914167,8.00844381 C54.5756621,9.52214398 55.475092,11.2447623 55.9186667,12.9808891 C56.1654939,13.9468996 56.1957885,14.7876535 56.1928127,15.8399137 C56.1868612,17.9401451 55.7444623,19.3192888 54.7073933,21.322504 C53.9798599,22.7278004 53.8135955,22.9077247 52.7115537,23.4822011 L51.4905691,23.9200564 L40.6213911,23.9868551 C29.5276532,24.0550356 29.4965748,23.98628 28.4153922,23.7796479 C26.1017576,23.3373685 25.15399,22.7913683 24.5496089,21.552623 C24.2497699,20.9380728 24.1827938,19.7447068 24.3999652,18.8865048 C24.8969437,16.9225596 28.3063203,11.6901374 33.0759754,5.57129002 C33.9842454,4.40609688 34.7704809,3.37283473 34.8231733,3.27514998 C35.0744714,2.80927 34.8230717,2.50084536 34.1063235,2.39570546 C33.6063403,2.32236175 31.0575347,2.71534086 29.9543606,3.03585909 C27.2577693,3.8193342 26.217202,4.21837808 24.8708732,4.98530808 C22.8444923,6.13962978 21.1827636,7.55731453 20.0292922,9.11582899 C18.7990901,10.7780239 18.3099937,11.8236299 17.844892,13.7855851 C17.5698896,14.9456797 17.6336576,16.7571516 17.9948405,18.0450938 C16.4268405,16.7476562 16.2481071,15.5972051 16.2820596,14.4674545 L16.2820596,14.4674545 Z"/><path d="M16.7016397,18.2821661 C16.3123832,17.0529996 16.2238221,16.2478664 16.2820596,14.4674545 C16.3267393,13.1012426 16.372261,12.7316354 16.5832631,12.0215831 C17.1090555,10.2522094 17.8382437,8.90671671 19.0572831,7.45657152 C21.8197328,4.17040632 26.9799073,1.691242 32.2327073,1.12653851 C33.6871064,0.970184543 36.4047311,0.956643059 36.8229177,1.10366695 C37.2527169,1.2547714 37.7022431,1.74759776 37.8467337,2.22608751 C37.9422188,2.5423095 37.9297497,2.63555567 37.7435987,2.99759556 C37.6271382,3.22409263 37.4105765,3.55741186 37.2623264,3.73830528 C37.1140907,3.91919869 36.7276648,4.41439028 36.4035989,4.83872992 C36.079533,5.26307099 35.3227792,6.20995549 34.7219109,6.94291819 C34.1210571,7.67588232 33.1426031,8.94891991 32.5475846,9.77189077 C31.446167,11.2952632 29.0346085,14.9090179 28.5534523,15.7571393 C28.4075537,16.0143182 28.1478365,16.4188086 27.9763174,16.6560075 C27.8047838,16.8932077 27.5106641,17.4085951 27.3226841,17.8013154 C27.0080389,18.4587187 26.9836959,18.5698198 27.0158775,19.20211 C27.0596717,20.0625377 27.3304936,20.5100207 28.1080486,21.0067637 C29.2784309,21.7544541 28.2146964,21.6956281 40.5647649,21.6956281 L51.5810753,21.6956281 L52.5359412,20.6761921 C53.2735631,19.8886782 53.5646055,19.4982771 53.8151923,18.9601461 C54.1814557,18.1735941 54.5600866,16.9453952 54.7237091,16.013168 C54.862553,15.2221442 54.7760096,13.1030931 54.5827604,12.5618938 C54.2190517,11.0970986 53.5757246,9.66534036 52.7818974,8.41585874 C51.2693914,6.07600579 49.1145164,4.21779864 45.9997966,2.56748303 C45.4469467,2.27456252 44.0347306,1.59957314 44.056693,1.57777995 C44.1244529,1.51054988 46.2272742,2.38068589 47.2643432,2.89245422 C49.8259518,4.1565557 52.0285403,5.96612969 53.4914167,8.00844381 C54.5756621,9.52214398 55.475092,11.2447623 55.9186667,12.9808891 C56.1654939,13.9468996 56.1957885,14.7876535 56.1928127,15.8399137 C56.1868612,17.9401451 55.7444623,19.3192888 54.7073933,21.322504 C53.9798599,22.7278004 53.8135955,22.9077247 52.7115537,23.4822011 L51.4905691,23.9200564 L40.6213911,23.9868551 C29.5276532,24.0550356 29.4965748,23.98628 28.4153922,23.7796479 C26.1017576,23.3373685 25.15399,22.7913683 24.5496089,21.552623 C24.2497699,20.9380728 24.1827938,19.7447068 24.3999507,18.8865048 C24.8969437,16.9225596 28.3063203,11.6901374 33.0759754,5.57129002 C33.9842454,4.40609688 34.7704809,3.37283473 34.8231733,3.27514998 C35.0744569,2.80927 34.8230717,2.50084536 34.1063235,2.39570546 C33.6063403,2.32236175 31.0575347,2.71534086 29.9543606,3.03585909 C27.2577693,3.8193342 26.217202,4.21837808 24.8708732,4.98530808 C22.8444923,6.13962978 21.1827636,7.55731453 20.0292922,9.11582899 C18.7990901,10.7780239 18.3099792,11.8236299 17.844892,13.7855851 C17.5698896,14.9456797 17.6336576,16.7571516 17.9948405,18.0450938 C17.5549818,18.3003345 18.7299512,20.0753143 16.7016397,18.2821661 L16.7016397,18.2821661 Z"/><path d="M16.8053263,18.1794633 C16.4160697,16.9502968 16.3275087,16.1451636 16.3857462,14.3647517 C16.4304259,12.9985399 16.4759475,12.6289327 16.6869497,11.9188804 C17.2127421,10.1495067 17.9419303,8.80401394 19.1609697,7.35386874 C21.9234193,4.06770355 27.0835938,1.58853923 32.3363938,1.02383574 C33.7907929,0.867481771 36.5084177,0.853940286 36.9266042,1.00096417 C37.3564035,1.15206862 37.8059297,1.64489498 37.9504203,2.12338474 C38.0459054,2.43960673 38.0334363,2.53285289 37.8472853,2.89489278 C37.7308248,3.12138986 37.5142486,3.45470909 37.3660129,3.63560251 C37.2177773,3.81649592 36.8313514,4.31168751 36.5072854,4.73602714 C36.1832195,5.16036822 35.4264657,6.10725272 34.8255975,6.84021541 C34.2247437,7.57317954 33.2462896,8.84621713 32.6512712,9.669188 C31.5498536,11.1925604 29.1382951,14.8063151 28.6571389,15.6544365 C28.5112403,15.9116154 28.251523,16.3161058 28.080004,16.5533047 C27.9084704,16.790505 27.6143361,17.3058923 27.4263707,17.6986126 C27.1117255,18.3560159 27.0873825,18.467117 27.1195641,19.0994072 C27.1633583,19.959835 27.4341802,20.4073179 28.2117351,20.9040609 C29.3821175,21.6517513 28.3183829,21.5929254 40.6684515,21.5929254 L51.6847619,21.5929254 L52.6396278,20.5734894 C53.3772497,19.7859754 53.6682776,19.3955743 53.9188789,18.8574434 C54.2851423,18.0708913 54.6637732,16.8426924 54.8273956,15.9104652 C54.966225,15.1194415 54.8796962,13.0003903 54.6864469,12.4591911 C54.3227238,10.9943958 53.5005471,9.73980415 52.7067199,8.49032253 C51.1942285,6.15046814 49.0393389,4.29226243 45.9246191,2.64194682 C45.3717692,2.34902631 44.1384172,1.49687037 44.1603796,1.47507717 C44.2281395,1.40784711 46.3309608,2.27798312 47.3680298,2.78975145 C49.9296383,4.05385293 52.1322269,5.86342692 53.5951033,7.90574104 C54.6793487,9.41944121 55.5787786,11.1420595 56.0223533,12.8781863 C56.269166,13.8441968 56.299475,14.6849508 56.2964993,15.737211 C56.2905478,17.8374423 55.8481488,19.216586 54.8110799,21.2198012 C54.0835464,22.6250976 53.9172821,22.8050219 52.8152403,23.3794984 L51.5942557,23.8173536 L40.7250777,23.8841523 C29.6313398,23.9523328 29.6002614,23.8835772 28.5190788,23.6769452 C26.2054442,23.2346657 25.2576766,22.6886655 24.6532954,21.4499202 C24.3534565,20.83537 24.2864659,19.642004 24.5036372,18.783802 C25.0006302,16.8198568 28.4100069,11.5874346 33.179662,5.46858724 C34.087932,4.30339411 34.8741674,3.27013195 34.9268599,3.17244721 C35.1781434,2.70656722 34.9267583,2.39814258 34.2100101,2.29300269 C33.7100269,2.21965897 31.1612067,2.61263809 30.0580472,2.93315632 C27.3614559,3.71663143 26.3208886,4.11567531 24.9745598,4.8826053 C22.9481789,6.03692701 21.2864502,7.45461175 20.1329788,9.01312621 C18.9027767,10.6753212 18.4136657,11.7209271 17.9485785,13.6828823 C17.6735761,14.8429769 17.7373442,16.6544488 18.0985271,17.942391 C17.6586684,18.1976317 17.7543422,18.0946543 16.8053263,18.1794633 L16.8053263,18.1794633 Z"/><path d="M0.0569331123,0.156642592 C1.42523255,0.00678868521 3.98198988,-0.0061899472 4.37542372,0.134722327 C4.77977438,0.279543429 5.20269188,0.751881395 5.33862497,1.21047797 C5.42846017,1.51355234 5.41673375,1.60292205 5.24160173,1.94991045 C5.13203626,2.16699063 4.92828606,2.48645231 4.78882281,2.65982461 C4.64936045,2.83319781 4.28580576,3.30780166 3.98092489,3.71449983 C1.77618736,5.91205299 2.19090328,4.66322352 2.49405145,2.21592581 C2.73046787,1.76941514 2.49396277,1.47381245 1.81963739,1.3730434 C0.959799661,0.699066966 1.78040388,0.811585793 0.0569331123,0.156642592 Z" transform="translate(32.36 1.054)" opacity=".8"/><path d="M9.84751748,0.442952299 C9.28222374,1.14544319 8.36169573,2.36555384 7.80189986,3.15431051 C6.76568335,4.61434839 4.49687435,8.07786137 4.04420627,8.89072262 C3.90694217,9.13720908 3.6626026,9.52488298 3.50123034,9.75222058 C3.33985719,9.97955907 3.06313694,10.4735197 2.88629615,10.8499117 C2.59026773,11.479984 2.56737442,11.5864661 2.59764995,12.1924688 C2.63884851,13.0171246 2.89363315,13.4460039 3.62517008,13.9220938 C4.72627123,14.638699 3.72550445,14.582319 15.344498,14.582319 C16.8558272,15.2483559 28.6448078,16.3567024 15.3977661,16.7782893 C4.96073414,16.8436342 4.93149788,16.7777515 3.9143102,16.5796965 C1.73764374,16.1558043 0.845975114,15.6325046 0.277370242,14.4452591 C-0.0047184146,13.8562586 -0.0677373152,12.7125068 0.136578638,11.8899851 C2.71264147,3.02242233 11.0754093,-1.44861077 9.84751748,0.442952299 L9.84751748,0.442952299 Z" transform="translate(24.288 7.07)"/><path d="M31.6616835,19.9140674 C31.1915593,19.2614233 31.1785386,18.4959096 31.6205892,17.5000109 C32.397941,15.7487553 36.7981537,9.65282261 40.1198256,5.7254211 C42.036641,3.45905134 42.8103784,2.38035375 42.8103784,1.97441691 C42.8103784,1.79578232 42.695021,1.57813365 42.4689515,1.3302733 L41.8652381,0.790605305 L42.4046028,0.955927019 C42.7397298,1.05864273 43.6963521,1.37459585 43.9821978,1.56011476 C44.4507543,1.8642101 44.3698866,2.71137677 43.8909368,3.53732969 C43.6626608,3.93097452 42.7558859,5.0924595 41.9636409,6.00598059 C39.7988951,8.50212712 37.2400155,11.9206086 34.8583161,15.4982091 C33.5931599,17.398618 33.1885747,18.206795 33.325459,18.5601216 C33.3962382,18.7428584 32.1953871,20.1286592 31.9698691,20.1244881 C31.8825709,20.1228921 31.7439012,20.0281808 31.6616835,19.9140688 L31.6616835,19.9140674 Z"/><path d="M51.8482973,20.5500614 C51.6449014,20.327156 51.1411295,19.2825652 51.1411295,19.1112722 C51.1411295,19.0367739 51.3461076,19.0365711 51.4317945,18.9679449 C51.6906118,18.7606645 51.8701581,18.3406469 52.1252883,17.3455692 C52.7219035,15.0186668 52.4731167,12.7134656 51.3831084,10.4688588 C50.0408586,7.70479852 47.2625287,5.34589001 44.1623247,4.33811195 C43.7245708,4.1958099 43.585843,4.144534 43.4934643,4.04047104 C43.334545,3.86147556 43.355143,3.79489827 43.6158473,3.23036732 C43.8094594,2.81113055 43.8535585,2.5905904 43.9981362,2.56992303 C44.1113016,2.55374025 44.66135,2.77159309 45.4780251,3.16629761 C49.4799815,5.10046533 52.1057791,7.54311308 53.4271551,10.5609332 C54.1192989,12.1417081 54.2695378,12.7665618 54.3301559,14.3167167 C54.4052463,16.2363149 54.0976123,17.6489284 53.2429202,19.3092341 C52.5529828,20.6494773 52.1848323,20.9188591 51.8482973,20.5500614 Z"/><path d="M32.8458414,20.6573997 C32.3574563,20.5968958 31.9063333,20.2842799 31.9063333,20.0980895 C31.9063333,19.9127288 33.1609946,18.4799799 33.3179978,18.4799799 C33.3709516,18.4799799 33.3982559,18.6833926 33.5672492,18.7687177 C33.8452128,18.9090687 34.7117788,18.9274714 42.6569605,18.9617781 L51.4394153,18.9996994 L51.8181043,19.6797212 C52.0472657,20.0912526 52.2411537,20.4879902 52.2040512,20.5821767 C52.1473814,20.7260115 46.800693,20.8116501 38.0800902,20.798701 C32.8903615,20.7909943 33.0042527,20.6770275 32.8458414,20.6573709 L32.8458414,20.6573997 Z"/><path d="M32.8458414,20.6573997 C32.3574563,20.5968958 31.9063333,20.2842799 31.9063333,20.0980895 C31.9063333,19.9127288 33.1609946,18.4799799 33.3179978,18.4799799 C33.3709516,18.4799799 33.3982559,18.6833926 33.5672492,18.7687177 C33.8452128,18.9090687 34.7117788,18.9274714 42.6569605,18.9617781 L51.4394153,18.9996994 L51.8181043,19.6797212 C52.0472657,20.0912526 52.2411537,20.4879902 52.2040512,20.5821767 C52.1473814,20.7260115 46.800693,20.8116501 38.0800902,20.798701 C32.8903615,20.7909943 33.0042527,20.6770275 32.8458414,20.6573709 L32.8458414,20.6573997 Z" opacity=".5"/><path d="M32.8569605,28.9011804 C23.7300596,28.112473 16.4319355,22.8142413 15.3473272,16.189663 C14.6695831,12.0500967 16.4627817,8.0101994 20.4168503,4.76854655 C21.777782,3.65281333 22.1358585,3.42339027 23.8876289,2.5447912 C27.1624293,0.902307456 30.3423397,0.153163422 34.5092104,0.0424950711 C36.7513546,-0.0170541038 38.3784631,0.0833768967 40.217851,0.394856925 C41.8196874,0.666113654 42.0112674,0.733097849 42.4619694,1.17951968 C42.7846563,1.49916371 42.8648417,1.64456141 42.8648417,1.91010851 C42.8648417,2.31567871 42.41668,2.93440579 40.0361419,5.81535019 C37.2093,9.23643131 35.4720164,11.5522452 33.2175193,14.9047245 C31.3482577,17.6843378 31.0897017,18.3037364 31.3824135,19.3010859 C31.5985977,20.0376906 32.275587,20.3793435 32.9406879,20.5047251 C33.8020717,20.6671166 34.7718453,20.6289105 41.2971466,20.6186818 C44.7248132,20.6133043 51.9952846,20.6287466 52.2207589,20.6123554 C52.5139932,20.5910338 52.6850188,20.5069466 52.8814179,20.3205736 C53.5552138,19.4566188 53.8196051,19.0956918 52.9283912,20.6646651 C52.5469587,21.3361749 51.9653965,21.8566967 51.324958,21.9883905 C50.5832572,22.1409112 31.065228,22.0656091 29.9921017,21.9060833 C29.0546549,21.7667403 28.5115596,21.5617446 27.7849842,21.0730117 C27.3295791,20.7666762 27.1535021,20.5748769 26.9506579,20.164224 C26.7226577,19.7026201 26.7001001,19.5743858 26.7513265,19.031057 C26.8156026,18.3492897 27.1024789,17.653009 27.6471855,16.8567285 C27.8444121,16.5684177 28.1489832,16.0800213 28.3240151,15.7714069 C28.4990325,15.4627924 29.2421123,14.3054887 29.9752924,13.1996204 C31.9208927,10.2650248 33.9015342,7.59221642 35.3114423,5.9986189 C36.1984902,4.99601416 37.4785687,3.2606509 37.5706571,2.93585513 C37.7494051,2.305496 37.2494363,1.45414237 36.5579892,1.21145532 C36.0868199,1.04608616 33.5815472,1.0816322 32.0728154,1.27509225 C23.7864391,2.33763869 17.5332226,7.06995192 16.4753088,13.0789893 C16.2954867,14.1003434 16.2943835,16.1278565 16.4729863,17.1385677 C16.9663504,19.9290036 18.7703197,22.5185429 21.6272819,24.5374017 C22.6679944,25.2728116 24.9461088,26.4299241 26.2950794,26.9082902 C32.4145616,29.0783354 40.1688021,28.7328248 45.9966467,26.0304374 C47.3981646,25.3805525 47.9989458,24.9772713 48.8719569,24.1003315 L49.6391766,23.3296373 L50.9626719,23.2670644 C52.2264201,23.2073053 52.9253574,23.2718955 52.8327899,23.4202335 C52.7483368,23.5555937 50.9661122,24.2461361 50.2531236,24.4967672 C49.8504255,24.6383288 49.4760477,24.8942496 48.9060546,25.2491751 C44.5358751,27.9703435 38.4672274,29.3860023 32.8568589,28.9011947 L32.8569605,28.9011804 Z"/><path d="M32.9607778,28.8845447 C23.8338768,28.0958373 16.5357528,22.7976099 15.4511444,16.1730317 C14.7734003,12.0334654 16.5665989,7.99356802 20.5206676,4.75191517 C21.8815992,3.63618195 22.2396757,3.40675889 23.9914462,2.52815838 C27.2662465,0.885677512 30.4461569,0.136533479 34.6130276,0.0258636893 C33.2485251,0.686735014 33.9910824,1.18249023 32.1766326,1.25845512 C23.8902563,2.32100156 17.6370253,7.05331479 16.5791261,13.0623508 C16.3993185,14.0837048 16.3982008,16.1112179 16.5768035,17.1219291 C17.0701676,19.912365 18.8741224,22.5019043 21.7310991,24.5207646 C22.7718116,25.2561745 25.049926,26.413274 26.3988966,26.8916545 C32.5183788,29.0616997 40.2726193,28.7161891 46.1004639,26.0138017 C47.5019818,25.3639168 48.102763,24.9606342 48.9757741,24.0836944 L49.7429938,23.3130002 L51.0664891,23.2504258 C52.3302373,23.1906681 53.0291746,23.2552569 52.9366071,23.4035964 C52.852154,23.5389566 51.0699294,24.2294976 50.3569408,24.4801301 C49.9542427,24.6216916 49.5798649,24.8776125 49.0098718,25.232538 C44.6396923,27.9537078 38.5710446,29.3693666 32.9606762,28.8845591 L32.9607778,28.8845447 Z" opacity=".3"/><path d="M32.8985629,28.8955297 C23.7716765,28.1068223 16.6881835,23.1629252 15.6035752,16.5383455 C14.925831,12.3987806 16.7190151,8.42974962 20.6730838,5.18809677 C22.03403,4.07236355 22.436554,3.83937899 24.0810088,2.88991214 C27.2522678,1.05890298 30.3839566,0.147515626 34.5508128,0.0368472741 C36.7929715,-0.0227019008 38.4200654,0.0777290997 40.2594534,0.389209128 C41.8613043,0.660464419 42.0528843,0.727448614 42.5035718,1.17387044 C42.8262732,1.49351447 42.9064586,1.63891361 42.9064586,1.90446072 C42.9064586,2.31003091 42.4582969,2.92875944 40.0777588,5.80970095 C37.2509024,9.23078351 35.5136333,11.5465974 33.2591216,14.8990753 C31.3898601,17.67869 31.1313186,18.2980886 31.4240303,19.2954366 C31.6402146,20.0320428 32.3172039,20.3736942 32.9823047,20.4990759 C33.8436741,20.6614673 34.8134622,20.6232627 41.338749,20.6130326 C44.76643,20.6076551 52.0369014,20.6230974 52.2623758,20.6067061 C52.5556101,20.5853845 52.7266211,20.5012988 52.9230348,20.3149244 C53.5968161,19.4509696 53.861222,19.0900426 52.9699935,20.6590173 C52.5885611,21.3305271 52.0069988,21.8510475 51.3665604,21.9827427 C50.624874,22.1352634 31.1068304,22.0599614 30.0337041,21.9004355 C29.0962573,21.7610925 28.5531765,21.5560953 27.8265866,21.0673625 C27.371196,20.761027 27.195119,20.5692291 26.9922747,20.1585747 C26.7642746,19.6969708 26.7417025,19.568738 26.7929434,19.0254078 C26.8572049,18.3436434 27.1440958,17.6473626 27.6887878,16.8510793 C27.8860144,16.5627685 28.1905856,16.0743735 28.3656175,15.7657591 C28.5406493,15.4571446 29.2837147,14.2998409 30.0169093,13.1939726 C31.9624951,10.259377 33.9431366,7.58656862 35.3530447,5.9929711 C36.2400926,4.99036636 37.5201711,3.2550031 37.612274,2.93020733 C37.7910219,2.2998482 37.2910532,1.44849457 36.5996061,1.20580753 C36.1284368,1.04043836 33.6231496,1.0759844 32.1144178,1.26944445 C23.8280415,2.33199089 17.5748249,7.06430412 16.5169112,13.0733415 C16.3371036,14.0946956 16.3359859,16.1222087 16.5145887,17.1329199 C17.0079672,19.9233558 18.8119221,22.5128951 21.6688843,24.5317539 C22.7096112,25.2671638 24.9877257,26.4242734 26.3366963,26.9026396 C32.4561785,29.0726848 40.2104189,28.7271742 46.0382636,26.0247867 C47.439767,25.3749018 48.0405627,24.9716235 48.9135738,24.0946837 L49.6807935,23.3239895 L51.0042743,23.2614166 C52.268037,23.2016575 52.9669742,23.2662477 52.8744068,23.4145857 C52.7899537,23.549946 51.0077291,24.2404883 50.2947405,24.4911194 C49.8920423,24.632681 49.5176646,24.8886018 48.9476569,25.2435273 C44.5774775,27.9647072 38.5088443,29.3803517 32.8984758,28.8955441 L32.8985629,28.8955297 Z"/><path d="M32.8569605,28.9011804 C23.7300596,28.112473 16.4319355,22.8142413 15.3473272,16.189663 C14.6695831,12.0500967 16.4627817,8.0101994 20.4168503,4.76854655 C21.777782,3.65281333 22.1358585,3.42339027 23.8876289,2.5447912 C27.1624293,0.902307456 30.3423397,0.153163422 34.5092104,0.0424950711 C34.4214042,0.941586101 32.9847289,1.27888381 32.0728154,1.2750865 C23.7864391,2.33763294 17.5332226,7.06994617 16.4753088,13.0789821 C16.2954867,14.1003362 16.2943835,16.1278507 16.4729863,17.1385605 C16.9663504,19.9289978 18.7703197,22.5185357 21.6272819,24.537396 C22.6679944,25.2728058 24.9461088,26.4299097 26.2950794,26.9082902 C32.4145616,29.0783354 40.1688021,28.7328248 45.9966467,26.0304374 C47.3981646,25.3805525 47.9989458,24.9772656 48.8719569,24.1003243 L49.6391766,23.3296301 L50.9626719,23.2670572 C52.2264201,23.2072981 52.9253574,23.2718883 52.8327899,23.4202263 C52.7483368,23.5555866 50.9661122,24.2461289 50.2531236,24.49676 C49.8504255,24.6383216 49.4760477,24.8942424 48.9060546,25.2491679 C44.5358751,27.9703435 38.4672274,29.3860023 32.8568589,28.9011804 L32.8569605,28.9011804 Z" opacity=".5"/><path d="M32.9607778,28.8845447 C23.8338768,28.0958373 16.5357528,22.7976099 15.4511444,16.1730317 C14.7734003,12.0334654 16.5665989,7.99356802 20.5206676,4.75191517 C21.8815992,3.63618195 22.2396757,3.40675889 23.9914462,2.52815838 C27.2662465,0.885677512 30.4461569,0.136533479 34.6130276,0.0258636893 C33.2485251,0.686735014 33.9910824,1.18249023 32.1766326,1.25845512 C23.8902563,2.32100156 17.6370253,7.05331479 16.5791261,13.0623508 C16.3993185,14.0837048 16.3982008,16.1112179 16.5768035,17.1219291 C17.0701676,19.912365 18.8741224,22.5019043 21.7310991,24.5207646 C22.7718116,25.2561745 25.049926,26.413274 26.3988966,26.8916545 C32.5183788,29.0616997 40.2726193,28.7161891 46.1004639,26.0138017 C47.5019818,25.3639168 48.102763,24.9606342 48.9757741,24.0836944 L49.7429938,23.3130002 L51.0664891,23.2504258 C52.3302373,23.1906681 53.0291746,23.2552569 52.9366071,23.4035964 C52.852154,23.5389566 51.0699294,24.2294976 50.3569408,24.4801301 C49.9542427,24.6216916 49.5798649,24.8776125 49.0098718,25.232538 C44.6396923,27.9537078 38.5710446,29.3693666 32.9606762,28.8845591 L32.9607778,28.8845447 Z" opacity=".3"/><path d="M33.9062809,21.0592804 C33.1561899,21.0413564 31.7627572,19.9593547 31.8658777,20.0460415 C32.6523744,20.7071644 35.9550307,20.6470516 42.4171445,20.6313577 L52.2236331,20.6075401 L52.4734796,20.3704404 C52.6108864,20.2400364 52.9195655,19.7247066 53.1594251,19.2252648 C54.5820491,16.2629881 54.5872457,13.2596168 53.1748119,10.337109 C52.6005657,9.14891058 51.929223,8.21101395 50.8640369,7.10881503 C49.3193057,5.51041372 47.8625551,4.42443065 45.5296434,3.40457051 C43.875129,2.68127723 43.8272413,2.84137818 43.8953205,2.38663275 C43.8953205,2.2739385 43.833396,2.1294912 43.7829825,1.95127359 C43.5652306,1.18135866 43.6656656,1.35085584 45.6294397,2.3671099 C48.2681854,3.7326733 49.692319,4.66268055 51.353322,6.37681425 C55.0222997,10.1631502 55.9347213,15.0490496 53.7927218,19.4394209 C53.3829979,20.2791914 52.7954552,20.85267 52.1414009,21.0512128 C51.8499375,21.1396868 50.1394792,21.1465797 43.3038876,21.1387292 C38.3967095,21.1330929 37.7502905,21.1511233 33.9062809,21.0592804 L33.9062809,21.0592804 Z" opacity=".3"/><path d="M33.9062809,20.8097996 C32.599711,20.79211 31.4216497,19.7346132 31.5247847,19.8201699 C32.3112669,20.4726587 35.9550307,20.4029541 42.4171445,20.3874629 L52.2236331,20.3639573 L52.4734796,20.1299533 C52.6108864,20.0012502 52.9195655,19.4926494 53.1594251,18.9997296 C54.5820491,16.0761277 54.5872457,13.1119717 53.1748119,10.2276197 C52.6005657,9.05493544 51.929223,8.12928337 50.8640369,7.04147569 C49.3193057,5.46394305 47.8625551,4.3921413 45.5296434,3.38559547 C43.875129,2.67174585 43.8272413,2.8297562 43.8953205,2.38094901 C43.8953205,2.26972422 43.833396,2.12716479 43.7829825,1.95127359 C43.5652306,1.19141197 43.7668409,1.75434262 45.7306151,2.75732838 C48.3693753,4.10506125 49.4899538,4.82510216 51.1509568,6.51685603 C54.8199345,10.2537565 55.9347213,14.8780398 53.7927218,19.2110892 C53.3829979,20.0398948 52.7954552,20.6058866 52.1414009,20.8018369 C51.8499375,20.8891549 50.1394792,20.8959587 43.3038876,20.8882088 C38.3967095,20.8826444 37.7510163,20.8618505 33.9062809,20.8097996 L33.9062809,20.8097996 Z"/><path d="M53.1748119,10.337109 C52.6005657,9.14891058 51.929223,8.21101395 50.8640369,7.10881503 C49.3193057,5.51041372 47.8625551,4.42443209 45.5296434,3.40457051 C43.875129,2.68127723 43.8272413,2.84137818 43.8953205,2.38663275 C43.8953205,2.2739385 43.833396,2.1294912 43.7829825,1.95127359 C43.5652306,1.18135866 43.5391892,1.60140637 45.5029633,2.61766043 C48.1417235,3.98322383 49.692319,4.66268055 51.353322,6.37681425 C52.7709815,8.28887533 51.8316621,7.26765788 53.1748119,10.337109 L53.1748119,10.337109 Z" opacity=".5"/><path d="M48.9758322,24.083693 L49.7430519,23.3129987 L51.0665472,23.2504258 C52.3302954,23.1906667 53.0292326,23.2552569 52.9366652,23.403595 C52.0493851,24.3981924 48.1195433,25.1045984 48.9758322,24.083693 Z" opacity=".3"/><path d="M32.8985629,28.8749975 C23.7716765,28.0862901 16.6881835,23.1423858 15.6035752,16.5178061 C14.9258165,12.3782412 16.7190151,8.40921022 20.6730838,5.16755737 C22.03403,4.05182415 22.436554,3.81883958 24.0810088,2.86937274 C27.2522678,1.03836501 30.3839566,0.126976221 34.5508128,0.0163078699 C36.7929715,-0.0432413049 38.4200654,0.0571896956 40.2594534,0.368669724 C41.8613043,0.639925015 42.0528843,0.70690921 42.5035718,1.15333104 C42.8262732,1.4729765 42.9064586,1.61837421 42.9064586,1.88392131 C42.9064586,2.28949151 42.4582969,2.90822003 40.0777588,5.78916155 C37.2509024,9.2102441 35.5136333,11.526058 33.2591216,14.8785359 C31.3898601,17.6581506 31.1313186,18.2775492 31.4240303,19.2748987 C31.6402146,20.0115034 32.3172039,20.3531548 32.9823047,20.4785365 C33.8436741,20.6409279 34.8134622,20.6027233 41.338749,20.5924932 C44.76643,20.5871157 52.0369014,20.602558 52.2623758,20.5861667 C52.5556101,20.5648466 52.7266211,20.4807594 52.9230348,20.2943864 C53.5968161,19.4304316 53.861222,19.0695046 52.9699935,20.6384779 C52.5885611,21.3099877 52.0069988,21.8305095 51.3665604,21.9622033 C50.624874,22.114724 31.1068304,22.0394219 30.0337041,21.8798976 C29.0962573,21.7405531 28.5531765,21.5355574 27.8265866,21.0468245 C27.371196,20.740489 27.195119,20.5486897 26.9922747,20.1380368 C26.7642746,19.6764329 26.7417025,19.5482 26.7929434,19.0048698 C26.8572049,18.323104 27.1440958,17.6268232 27.6887878,16.8305413 C27.8860144,16.5422305 28.1905856,16.0538341 28.3656175,15.7452197 C28.5406493,15.4366052 29.2837147,14.2793015 30.0169093,13.1734332 C31.9624951,10.2388376 33.9431366,7.56602921 35.3530447,5.9724317 C36.2400926,4.96982696 37.5201711,3.2344637 37.612274,2.90966793 C37.7910219,2.2793088 37.2910532,1.42795517 36.5996061,1.18526812 C36.1284368,1.01989896 33.6231496,1.055445 32.1144178,1.24890505 C23.8280415,2.31145149 17.5748249,7.04376472 16.5169112,13.0528021 C16.3371036,14.0741562 16.3359859,16.1016693 16.5145887,17.1123805 C17.0079672,19.9028164 18.8119221,22.4923557 21.6688843,24.5112145 C22.7096112,25.2466244 24.9877257,26.4037269 26.3366963,26.8821073 C32.4561785,29.0521525 40.2104189,28.7066419 46.0382636,26.0042545 C47.439767,25.3543696 48.0405627,24.9510841 48.9135738,24.0741443 L49.6807935,23.3034501 L51.0042743,23.2408772 C52.268037,23.1811181 52.9669742,23.2457083 52.8744068,23.3940463 C52.7899537,23.5294065 51.0077291,24.2199489 50.2947405,24.47058 C49.8920423,24.6121416 49.5176646,24.8680624 48.9476569,25.2229879 C44.5774775,27.9441606 38.5088443,29.3598194 32.8984758,28.8749975 L32.8985629,28.8749975 Z" opacity=".6"/></g></svg>
