<svg width="132" height="24" viewBox="0 0 132 24" xmlns="http://www.w3.org/2000/svg"><path d="M0.624496552,23.5191931 C3.42289655,23.6463572 7.98554483,23.7753125 10.6219034,23.7753125 C22.1286621,23.7753125 23.5014621,23.7520289 23.5014621,17.5997901 C23.5014621,12.7460587 22.0449103,12.357402 15.9565241,12.1765065 L8.88132414,11.9669543 C5.63685517,11.8612826 5.58405517,11.5263572 5.58405517,10.0988946 C5.58405517,8.61949158 5.97914483,8.61949158 13.7625931,8.61949158 C15.2373517,8.61949158 19.9365517,8.6965065 22.4181517,8.7484468 C22.5271212,8.76294137 22.6367051,8.72642061 22.7142804,8.64975674 C22.7918557,8.57309287 22.8284767,8.46512646 22.8132414,8.35799904 L22.8132414,5.19501396 C22.8261304,5.09151373 22.793897,4.98748128 22.7245141,4.90864882 C22.6551312,4.82981635 22.5550783,4.78354599 22.4491034,4.78128262 C19.9948138,4.64874531 15.9856552,4.51979008 13.1089655,4.51979008 C1.82068966,4.51979008 0,4.72755128 0,10.4624767 C0,15.3699393 1.10697931,16.0147155 8.33511724,16.2529244 L14.8240552,16.4588946 C17.8591448,16.5627752 17.9192276,16.9263572 17.9192276,18.0421781 C17.9192276,19.5753125 17.7863172,19.6541184 10.6073379,19.6541184 C7.25544828,19.6541184 3.79977931,19.5251632 0.660910345,19.4194916 C0.396910345,19.3944169 0.26582069,19.5251632 0.26582069,19.7777005 L0.26582069,23.1054617 C0.25240458,23.2094222 0.284339857,23.3141121 0.353725368,23.3936301 C0.423110879,23.4731481 0.523464874,23.5200657 0.629958621,23.5227752 L0.624496552,23.5191931 Z M122.397683,16.6397901 L113.953324,16.6397901 L117.833214,9.08337217 L118.519614,9.08337217 L122.397683,16.6397901 Z M97.7419034,14.0177005 L97.7419034,14.277402 C97.7419034,19.0791931 97.3431724,19.235014 91.0053517,19.235014 L85.7799724,19.235014 L85.7799724,9.05829755 L91.0053517,9.05829755 C97.334069,9.05829755 97.7419034,9.21590949 97.7419034,14.0177005 L97.7419034,14.0177005 Z M70.3459862,14.0177005 L70.3459862,14.277402 C70.3459862,19.5215811 70.1366069,19.5985961 63.9098483,19.5985961 C57.6830897,19.5985961 57.470069,19.5215811 57.470069,14.277402 L57.470069,14.0177005 C57.470069,8.77531247 57.6830897,8.69829755 63.9098483,8.69829755 C70.1366069,8.69829755 70.3459862,8.77531247 70.3459862,14.0177005 L70.3459862,14.0177005 Z M131.766952,23.0248647 L122.663503,5.08934232 C122.600066,4.90302154 122.414473,4.78427615 122.215614,4.80277516 L114.149959,4.80277516 C113.950453,4.78339909 113.763838,4.90231451 113.700248,5.08934232 L104.5968,23.0248647 C104.462069,23.3114319 104.57131,23.4923274 104.884469,23.4923274 L110.137159,23.4923274 C110.336188,23.5115106 110.522177,23.3925117 110.585048,23.2057602 L111.957848,20.5585961 L124.413186,20.5585961 L125.782345,23.2057602 C125.846652,23.3930645 126.033892,23.5118976 126.233876,23.4923274 L131.484745,23.4923274 C131.801545,23.4923274 131.907145,23.3132229 131.776055,23.0248647 L131.766952,23.0248647 Z M90.9926069,4.8045662 L80.4672,4.8045662 C80.3563799,4.78643027 80.2433986,4.82123549 80.162889,4.89831279 C80.0823794,4.9753901 80.0439443,5.0855461 80.0593655,5.19501396 L80.0593655,23.1054617 C80.0444974,23.2130132 80.0818459,23.3211891 80.1602237,23.3975866 C80.2386015,23.4739841 80.3489059,23.5097305 80.4580966,23.4941184 L90.9853241,23.4941184 C102.253572,23.4941184 103.730152,22.9478498 103.730152,14.2254617 L103.730152,14.0714319 C103.730152,5.35083486 102.251752,4.80635725 90.9853241,4.80635725 L90.9926069,4.8045662 Z M50.2273655,23.0230737 L39.7238069,12.9269543 L49.5901241,5.27023784 C49.8832552,5.0642677 49.7721931,4.80277516 49.4080552,4.80277516 L42.9609931,4.80277516 C42.7850493,4.80000678 42.6148126,4.86416959 42.4857931,4.98187964 L32.4155586,12.8965065 L32.4155586,5.19501396 C32.4315857,5.08772093 32.3952251,4.97927723 32.3174529,4.9024188 C32.2396807,4.82556037 32.1296104,4.78929355 32.020469,4.8045662 L27.1209931,4.8045662 C27.010296,4.78626133 26.8973704,4.82108279 26.8171027,4.89827306 C26.7368351,4.97546334 26.6988861,5.08573221 26.7149793,5.19501396 L26.7149793,23.1054617 C26.6994539,23.2128261 26.736321,23.3211042 26.8144515,23.3976101 C26.8925821,23.4741159 27.0028207,23.5098846 27.1118897,23.4941184 L32.0277517,23.4941184 C32.1365308,23.5092559 32.2462158,23.4732074 32.3239,23.3967881 C32.4015843,23.3203687 32.4382293,23.2124697 32.4228414,23.1054617 L32.4228414,18.5866558 L35.4033103,16.276208 L42.6259862,23.2845662 C42.7522491,23.4247013 42.9365908,23.5005345 43.1266759,23.4905364 L50.0452966,23.4905364 C50.3875862,23.4905364 50.4950069,23.2577005 50.2273655,23.0230737 L50.2273655,23.0230737 Z M51.345269,14.0159095 L51.345269,14.275611 C51.345269,23.3329244 52.8528,23.8809841 63.9080276,23.8809841 C74.9632552,23.8809841 76.4707862,23.3329244 76.4707862,14.2469543 L76.4707862,14.0177005 C76.4707862,4.9603871 74.9668966,4.41411844 63.9080276,4.41411844 C52.8491586,4.41411844 51.345269,4.95143187 51.345269,14.0177005 L51.345269,14.0159095 Z M6.87674483,0.470237845 L9.27823448,3.16576023 C9.39041163,3.3101771 9.56920114,3.38901915 9.75343448,3.37531247 L14.7931034,3.37531247 C14.9773368,3.38901915 15.1561263,3.3101771 15.2683034,3.16576023 L17.6697931,0.470237845 C17.8791724,0.233819934 17.8008828,0.000984113189 17.4567724,0.000984113189 L14.0557241,0.000984113189 C13.8665874,-0.00499089012 13.6869183,0.0823729146 13.5768828,0.233819934 L12.5554759,1.68814829 L11.9928828,1.68814829 L10.9660138,0.233819934 C10.850342,0.077362879 10.6616458,-0.0103865443 10.4653241,0.000984113189 L7.0934069,0.000984113189 C6.74747586,0.000984113189 6.67464828,0.233819934 6.8822069,0.470237845 L6.87674483,0.470237845 Z" fill-rule="nonzero" fill="#FFF"/></svg>
