<svg width="81" height="32" viewBox="0 0 81 32" xmlns="http://www.w3.org/2000/svg"><g fill-rule="nonzero" fill="#FFF"><path d="M79.054867,1.85251148 C78.491754,3.19536892 79.585383,5.32336787 78.0095687,5.74051148 L29.057032,5.57365403 L23.8631376,5.68336787 L23.1280569,6.82622531 L17.0012634,30.4593658 L16.1526609,30.8513658 L7.883568,30.703937 L7.10689976,29.063937 C4.80499739,19.4285094 2.21535516,9.9530817 -1.0310977e-06,0.329082754 C2.11869378,0.0467976393 4.58694539,-0.116631082 6.73823626,0.343940197 C8.98056906,7.38279659 10.0000155,14.8742243 11.9534857,22.1622243 L12.2097522,22.3736519 L12.8144518,21.6787955 L18.0870245,0.657082754 L18.677111,0.154226361 L74.2734721,0.245655082 C75.8661457,0.750797639 79.1919913,-0.908631082 79.054867,1.85251148"/><path d="M79.131297,10.9302337 C79.2695459,12.5119486 77.7892694,13.9622337 76.7091277,14.8856624 C74.6938384,13.9759486 72.206479,12.0993773 69.7292359,13.4559486 C68.9548161,14.046805 68.4108118,15.1073763 68.9761722,15.9816624 C72.406547,18.590805 78.5277221,17.1690901 79.8180459,22.4616614 C80.4553405,24.7393752 79.945056,27.6525178 78.1702975,29.2662327 C75.3109015,31.9782316 71.1645538,32.5519465 67.167694,31.3828039 C65.4142906,30.5873752 63.4540761,30.0525178 61.9355841,28.6239465 C62.5189286,27.0045178 63.5462428,25.6193752 64.6488633,24.4102327 C66.8777078,24.9713752 68.8199392,26.8090901 71.5736812,26.4810901 C72.4841016,26.4662327 73.6294334,25.8262327 74.0790236,24.8365188 C74.4038532,20.8936614 69.4516133,22.4170901 67.1733134,21.294805 C64.8556743,20.7302327 63.0247173,18.7199475 62.5683829,16.4662337 C62.1199164,14.1096624 62.7617067,11.8502337 64.5308458,10.334806 C68.6738224,7.45366348 75.1906367,7.90851987 79.131297,10.9302337"/><path d="M60.2091573,9.78506387 C60.3743818,16.555349 60.3462826,23.5862054 60.1574546,30.3199192 C58.0117831,30.8822043 55.596359,30.3953479 53.3236785,30.3907767 C51.4882258,27.2810618 50.3642493,24.3073479 48.2590419,21.1736341 C47.9926595,21.0582054 47.872394,21.419349 47.685814,21.4902054 L47.5127216,30.1839192 C46.079652,30.981633 44.0542468,30.2570618 42.3918859,30.5770618 L42.0265937,29.4307767 C42.0940322,23.0559203 41.8478815,16.0936351 42.3547948,9.8467777 C44.2116035,9.45020643 46.3066952,9.43992131 48.3905471,9.52335003 L48.9941223,9.94506387 L53.6631191,18.4799203 L54.3116536,18.3530628 C54.1509248,15.8376351 54.6893097,12.6524926 54.5533091,9.85820643 C56.1583463,9.16220643 58.4962178,9.54277875 60.2091573,9.78506387"/><path d="M31.7162519,20.8753668 C31.5746308,19.1965094 30.8946252,17.5747955 30.2033798,16.1210817 C29.2671078,17.429653 29.3008265,19.2833668 28.8961959,20.821653 C29.6616232,21.5359381 30.8710217,21.1839381 31.7162519,20.8753668 L31.7162519,20.8753668 Z M36.6673672,14.9119391 L40.4113319,30.319937 C38.8119138,30.9176519 36.7527894,30.4673658 34.9330718,30.4947945 C34.0350148,29.215937 34.6003748,26.7679381 32.5322586,26.4982232 C30.6091353,26.6170807 28.1172803,25.8525094 26.8134671,27.4022232 L25.916534,30.559937 C24.1709995,30.7873658 22.0714114,30.8010796 20.47087,30.375937 C22.225397,23.4010807 24.2474295,16.5439391 26.3537617,9.68793915 C28.9512707,9.16908275 32.3018435,9.36336787 34.9937665,9.68451043 L36.6673672,14.9119391 Z"/><path d="M79.9843952,7.37135003 C79.9428076,7.35192131 79.883237,7.34163515 79.8045587,7.34163515 L79.7326245,7.34163515 L79.7326245,7.68563515 L79.8495173,7.68563515 C79.9225762,7.68792131 79.977651,7.67192131 80.0169902,7.64677875 C80.057453,7.61363515 80.0776845,7.56563515 80.0776845,7.50163515 C80.0788092,7.43649259 80.0450895,7.39192131 79.9843952,7.37135003 L79.9843952,7.37135003 Z M79.4358941,8.30735003 L79.4358941,7.14506387 C79.508953,7.14277875 79.6134822,7.14506387 79.756228,7.14506387 C79.897849,7.14735003 79.977651,7.14506387 79.9900146,7.14506387 C80.0844286,7.15192131 80.1597349,7.17135003 80.2181818,7.20792131 C80.3204637,7.26163515 80.3699191,7.35649259 80.3699191,7.48220748 C80.3699191,7.58163515 80.3451908,7.65249259 80.2912407,7.69249259 C80.2384132,7.73706387 80.1732232,7.76335003 80.0945449,7.76906387 C80.1676027,7.78506387 80.2204302,7.81020748 80.257521,7.83877875 C80.3249594,7.89706387 80.3631749,7.98620748 80.3620512,8.10392131 L80.3631749,8.20563515 C80.3620512,8.21706387 80.366547,8.22849259 80.3620512,8.24220748 C80.3620512,8.25135003 80.366547,8.26506387 80.366547,8.27420643 L80.3744148,8.31192131 L80.0911728,8.30620643 C80.0821813,8.27306387 80.0754371,8.21706387 80.0731887,8.14506387 C80.072065,8.07763515 80.0653209,8.03192131 80.0529573,8.00449259 C80.0372216,7.96220748 80.0079987,7.93249259 79.9697832,7.91649259 C79.945056,7.90963515 79.9102126,7.90163515 79.8630056,7.89935003 L79.7978145,7.89935003 L79.7326245,7.89706387 L79.7326245,8.30849259 L79.4358941,8.30735003 Z M79.2897774,7.12106387 C79.1245528,7.28792131 79.0425024,7.49020748 79.0425024,7.72792131 C79.0425024,7.96563515 79.1268012,8.17363515 79.2942731,8.34506387 C79.461746,8.51420643 79.6595656,8.59763515 79.8922285,8.59420643 C80.1271399,8.59877875 80.3305799,8.50963515 80.4991765,8.34049259 C80.6610289,8.17020748 80.7453267,7.96335003 80.7453267,7.72792131 C80.7453267,7.49020748 80.6610289,7.28792131 80.4969281,7.12220748 C80.3249594,6.94506387 80.1271399,6.85820748 79.8922285,6.85820748 C79.6595656,6.85820748 79.4572503,6.94506387 79.2897774,7.12106387 L79.2897774,7.12106387 Z M80.617194,8.47992131 C80.413754,8.67649259 80.1732232,8.77820643 79.8922285,8.77592131 C79.599995,8.77249259 79.3549684,8.67306387 79.1549005,8.47192131 C78.9593283,8.26963515 78.8626669,8.01706387 78.8581712,7.72335003 C78.8581712,7.41706387 78.9671961,7.16106387 79.1829997,6.95992131 C79.385315,6.7656362 79.6202264,6.67306387 79.8944769,6.6696362 C80.177719,6.6696362 80.4261176,6.77249259 80.6216898,6.97706387 C80.8262535,7.18735003 80.9262869,7.43306387 80.9262869,7.72335003 C80.9274106,8.02277875 80.8262535,8.27763515 80.617194,8.47992131 L80.617194,8.47992131 Z"/></g></svg>
